<svg width="1440" height="631" viewBox="0 0 1440 631" fill="none" xmlns="http://www.w3.org/2000/svg">
<rect y="5.59766" width="1440" height="625" fill="#33357D"/>
<path fill-rule="evenodd" clip-rule="evenodd" d="M64.853 562.195C64.0455 565.867 61.1805 568.712 57.6016 569.32C61.1426 569.921 63.9849 572.712 64.8267 576.328C65.5352 572.894 68.0383 570.162 71.2533 569.27V569.13C68.0769 568.248 65.5954 565.571 64.853 562.195Z" fill="white"/>
<path fill-rule="evenodd" clip-rule="evenodd" d="M112.251 153.598C111.444 157.269 108.579 160.115 105 160.722C108.541 161.323 111.383 164.115 112.225 167.73C112.934 164.296 115.437 161.565 118.652 160.672V160.532C115.475 159.65 112.994 156.973 112.251 153.598Z" fill="white"/>
<path fill-rule="evenodd" clip-rule="evenodd" d="M419.65 0C418.842 3.67183 415.977 6.51696 412.398 7.12435C415.939 7.72532 418.782 10.517 419.624 14.1325C420.332 10.6987 422.835 7.96708 426.05 7.07458V6.93449C422.874 6.05272 420.392 3.37573 419.65 0Z" fill="white"/>
<path fill-rule="evenodd" clip-rule="evenodd" d="M736.21 136.426C734.375 144.73 727.898 151.165 719.805 152.552C727.813 153.924 734.239 160.239 736.15 168.417C737.764 160.637 743.443 154.45 750.733 152.434V152.132C743.53 150.139 737.9 144.076 736.21 136.426Z" fill="white"/>
<path fill-rule="evenodd" clip-rule="evenodd" d="M1276.21 16.4258C1274.38 24.7302 1267.9 31.1654 1259.8 32.5521C1267.81 33.9243 1274.24 40.2392 1276.15 48.417C1277.76 40.6366 1283.44 34.4501 1290.73 32.4336V32.1316C1283.53 30.1392 1277.9 24.0755 1276.21 16.4258Z" fill="white"/>
<path fill-rule="evenodd" clip-rule="evenodd" d="M1269.37 446.451C1268.29 451.279 1264.52 455.018 1259.81 455.823C1264.47 456.619 1268.21 460.289 1269.33 465.043C1270.28 460.522 1273.58 456.929 1277.82 455.756V455.578C1273.63 454.419 1270.36 450.897 1269.37 446.451Z" fill="white"/>
<path fill-rule="evenodd" clip-rule="evenodd" d="M439.382 518.502C438.307 523.33 434.537 527.069 429.828 527.874C434.487 528.67 438.228 532.34 439.347 537.094C440.293 532.573 443.596 528.979 447.835 527.807V527.628C443.646 526.47 440.371 522.947 439.382 518.502Z" fill="white"/>
<mask id="mask0_7384_94147" style="mask-type:alpha" maskUnits="userSpaceOnUse" x="0" y="5" width="1440" height="626">
<rect y="5.59766" width="1440" height="625" fill="#DCEFF0"/>
</mask>
<g mask="url(#mask0_7384_94147)">
<path d="M1410.05 -205.402V852.598M1221.69 -205.402V852.598M1033.33 -205.402V852.598M844.967 -205.402V852.598M656.607 -205.402V852.598M468.248 -205.402V852.598M279.888 -205.402V852.598M91.528 -205.402V852.598M1550 543.369L-50 543.369M1550 691.694L-50 691.694M1550 395.045L-50 395.045M1550 246.722L-50 246.722M1550 98.3973L-50 98.3972M1550 -49.9264L-50 -49.9264" stroke="url(#paint0_linear_7384_94147)"/>
</g>
<defs>
<linearGradient id="paint0_linear_7384_94147" x1="1530" y1="-193.253" x2="-28.5523" y2="574.152" gradientUnits="userSpaceOnUse">
<stop offset="0.00946072" stop-color="white" stop-opacity="0.21"/>
<stop offset="0.307709" stop-color="white" stop-opacity="0"/>
<stop offset="0.76833" stop-color="white" stop-opacity="0.07"/>
<stop offset="1" stop-color="white" stop-opacity="0.3"/>
</linearGradient>
</defs>
</svg>
