<svg width="181" height="54" viewBox="0 0 181 54" fill="none" xmlns="http://www.w3.org/2000/svg">
<g clip-path="url(#clip0_7154_74664)">
<rect x="0.699219" width="180" height="54" fill="white"/>
<g opacity="0.7">
<path d="M73.2919 18.9005H70.9375V11.1677H73.2703C75.6031 11.1677 77.1583 12.7229 77.1583 15.0341C77.1583 17.3453 75.6139 18.9005 73.2919 18.9005ZM73.2379 11.8805H71.7151V18.1877H73.2595C75.1495 18.1877 76.3591 16.9565 76.3591 15.0341C76.3591 13.1009 75.1495 11.8805 73.2379 11.8805Z" fill="#111111"/>
<path d="M78.0337 16.2869C78.0337 14.6885 79.1569 13.5329 80.6905 13.5329C82.2241 13.5329 83.3473 14.6885 83.3473 16.2869C83.3473 17.8745 82.2241 19.0301 80.6905 19.0301C79.1569 19.0301 78.0337 17.8745 78.0337 16.2869ZM78.7897 16.2761C78.7897 17.5073 79.5673 18.3605 80.6905 18.3605C81.8029 18.3605 82.5913 17.5073 82.5913 16.2761C82.5913 15.0665 81.8029 14.2025 80.6905 14.2025C79.5673 14.2025 78.7897 15.0665 78.7897 16.2761Z" fill="#111111"/>
<path d="M85.4087 18.9005L83.6807 13.6733H84.4475L85.4735 16.8269C85.5923 17.1725 85.6895 17.5289 85.7975 17.9501C85.8839 17.5289 86.0567 16.9997 86.1107 16.8269L87.1475 13.6733H87.9143L88.9403 16.8269C89.0375 17.1077 89.1671 17.5613 89.2643 17.9501C89.3723 17.5181 89.3939 17.3885 89.5775 16.8269L90.6143 13.6733H91.3919L89.6207 18.9005H88.8971L87.8171 15.6173C87.6875 15.2285 87.6011 14.9045 87.5363 14.5913C87.4607 14.8721 87.3743 15.1853 87.2339 15.6173L86.1539 18.9005H85.4087Z" fill="#111111"/>
<path d="M93.068 18.9005H92.3228V13.6733H92.9708L93.0788 14.5805C93.4244 13.9109 94.1156 13.5329 94.8716 13.5329C96.308 13.5329 96.902 14.3861 96.902 15.7037V18.9005H96.1568V15.8657C96.1568 14.6453 95.606 14.2133 94.742 14.2133C93.6728 14.2133 93.068 14.9909 93.068 16.1681V18.9005Z" fill="#111111"/>
<path d="M99.1648 18.9005H98.4196V11.0273H99.1648V18.9005Z" fill="#111111"/>
<path d="M100.383 16.2869C100.383 14.6885 101.506 13.5329 103.039 13.5329C104.573 13.5329 105.696 14.6885 105.696 16.2869C105.696 17.8745 104.573 19.0301 103.039 19.0301C101.506 19.0301 100.383 17.8745 100.383 16.2869ZM101.139 16.2761C101.139 17.5073 101.916 18.3605 103.039 18.3605C104.152 18.3605 104.94 17.5073 104.94 16.2761C104.94 15.0665 104.152 14.2025 103.039 14.2025C101.916 14.2025 101.139 15.0665 101.139 16.2761Z" fill="#111111"/>
<path d="M108.389 19.0301C107.277 19.0301 106.618 18.4037 106.618 17.4857C106.618 16.5245 107.352 15.9197 108.573 15.8225L110.301 15.6821V15.5093C110.301 14.4833 109.685 14.1593 108.918 14.1593C108.011 14.1593 107.471 14.5697 107.471 15.2717H106.791C106.791 14.2133 107.655 13.5329 108.94 13.5329C110.15 13.5329 111.035 14.1377 111.035 15.5201V18.9005H110.409L110.312 17.9825C109.988 18.6413 109.275 19.0301 108.389 19.0301ZM108.562 18.4253C109.664 18.4253 110.301 17.6585 110.301 16.5245V16.2437L108.756 16.3625C107.774 16.4489 107.374 16.8809 107.374 17.4641C107.374 18.1013 107.849 18.4253 108.562 18.4253Z" fill="#111111"/>
<path d="M114.583 19.0301C113.06 19.0301 112.163 17.8637 112.163 16.2977C112.163 14.7209 113.06 13.5329 114.615 13.5329C115.479 13.5329 116.17 13.9109 116.537 14.6669V11.0273H117.283V18.9005H116.635L116.559 17.8313C116.192 18.6413 115.457 19.0301 114.583 19.0301ZM114.712 18.3497C115.857 18.3497 116.527 17.4857 116.527 16.2761C116.527 15.0773 115.857 14.2025 114.712 14.2025C113.578 14.2025 112.919 15.0773 112.919 16.2761C112.919 17.4857 113.578 18.3497 114.712 18.3497Z" fill="#111111"/>
<path d="M121.466 16.2869C121.466 14.6885 122.589 13.5329 124.123 13.5329C125.656 13.5329 126.779 14.6885 126.779 16.2869C126.779 17.8745 125.656 19.0301 124.123 19.0301C122.589 19.0301 121.466 17.8745 121.466 16.2869ZM122.222 16.2761C122.222 17.5073 122.999 18.3605 124.123 18.3605C125.235 18.3605 126.023 17.5073 126.023 16.2761C126.023 15.0665 125.235 14.2025 124.123 14.2025C122.999 14.2025 122.222 15.0665 122.222 16.2761Z" fill="#111111"/>
<path d="M128.716 18.9005H127.971V13.6733H128.619L128.727 14.5805C129.073 13.9109 129.764 13.5329 130.52 13.5329C131.956 13.5329 132.55 14.3861 132.55 15.7037V18.9005H131.805V15.8657C131.805 14.6453 131.254 14.2133 130.39 14.2133C129.321 14.2133 128.716 14.9909 128.716 16.1681V18.9005Z" fill="#111111"/>
<path d="M138.23 18.9005H137.495V14.2997H136.448V13.6733H137.495V12.0209H138.23V13.6733H139.277V14.2997H138.23V18.9005Z" fill="#111111"/>
<path d="M140.993 18.8897H140.248V11.0273H140.993V14.5805C141.328 13.9541 141.965 13.5329 142.84 13.5329C144.211 13.5329 144.827 14.3861 144.827 15.7037V18.9005H144.082V15.8657C144.082 14.6453 143.509 14.2133 142.699 14.2133C141.576 14.2133 140.993 15.0449 140.993 16.0493V18.8897Z" fill="#111111"/>
<path d="M148.505 19.0301C146.971 19.0301 145.945 17.9285 145.945 16.2869C145.945 14.6561 146.96 13.5329 148.451 13.5329C149.865 13.5329 150.827 14.5373 150.827 16.0169V16.3841H146.669C146.723 17.6585 147.392 18.3929 148.515 18.3929C149.369 18.3929 149.919 18.0257 150.114 17.3345H150.827C150.546 18.4361 149.736 19.0301 148.505 19.0301ZM148.451 14.1701C147.468 14.1701 146.82 14.8181 146.69 15.8441H150.081C150.081 14.8397 149.433 14.1701 148.451 14.1701Z" fill="#111111"/>
</g>
<path d="M69.5911 38.8008H67.7551L72.5071 25.7868H74.4691L79.2391 38.8008H77.3851L76.2151 35.5608H70.7431L69.5911 38.8008ZM73.2631 28.5948L71.2831 34.0308H75.6931L73.6951 28.5948C73.6051 28.3428 73.5151 28.0368 73.4791 27.8388C73.4431 28.0188 73.3531 28.3248 73.2631 28.5948ZM80.681 42.7428V29.9988H82.211L82.337 31.5828C82.931 30.3768 84.119 29.7468 85.523 29.7468C88.043 29.7468 89.609 31.6368 89.609 34.3368C89.609 37.0188 88.133 39.0348 85.523 39.0348C84.119 39.0348 82.949 38.4408 82.373 37.3608V42.7428H80.681ZM82.391 34.4088C82.391 36.2088 83.435 37.5048 85.163 37.5048C86.891 37.5048 87.917 36.2088 87.917 34.4088C87.917 32.5908 86.891 31.2948 85.163 31.2948C83.435 31.2948 82.391 32.5728 82.391 34.4088ZM91.474 42.7428V29.9988H93.004L93.13 31.5828C93.724 30.3768 94.912 29.7468 96.316 29.7468C98.836 29.7468 100.402 31.6368 100.402 34.3368C100.402 37.0188 98.926 39.0348 96.316 39.0348C94.912 39.0348 93.742 38.4408 93.166 37.3608V42.7428H91.474ZM93.184 34.4088C93.184 36.2088 94.228 37.5048 95.956 37.5048C97.684 37.5048 98.71 36.2088 98.71 34.4088C98.71 32.5908 97.684 31.2948 95.956 31.2948C94.228 31.2948 93.184 32.5728 93.184 34.4088ZM106.469 36.2448H108.089C108.089 37.1448 108.773 37.6848 109.889 37.6848C111.077 37.6848 111.761 37.1988 111.761 36.3888C111.761 35.7948 111.473 35.4348 110.555 35.2008L109.007 34.8408C107.441 34.4628 106.703 33.6888 106.703 32.3928C106.703 30.7728 108.071 29.7468 110.015 29.7468C111.941 29.7468 113.201 30.8268 113.237 32.5008H111.617C111.581 31.6188 110.987 31.0608 109.961 31.0608C108.899 31.0608 108.305 31.5288 108.305 32.3388C108.305 32.9328 108.737 33.3288 109.601 33.5448L111.149 33.9228C112.643 34.2828 113.381 34.9668 113.381 36.2808C113.381 37.9548 111.941 39.0168 109.853 39.0168C107.783 39.0168 106.469 37.9188 106.469 36.2448ZM117.741 38.8008H116.049V31.4208H114.321V29.9988H116.049V27.2448H117.741V29.9988H119.469V31.4208H117.741V38.8008ZM120.324 34.3908C120.324 31.6728 122.268 29.7648 124.914 29.7648C127.542 29.7648 129.486 31.6728 129.486 34.3908C129.486 37.1088 127.542 39.0168 124.914 39.0168C122.268 39.0168 120.324 37.1088 120.324 34.3908ZM122.034 34.3908C122.034 36.2268 123.204 37.5048 124.914 37.5048C126.606 37.5048 127.794 36.2268 127.794 34.3908C127.794 32.5548 126.606 31.2768 124.914 31.2768C123.204 31.2768 122.034 32.5548 122.034 34.3908ZM136.399 29.9268V31.4748H135.643C134.041 31.4748 133.051 32.4468 133.051 34.1388V38.8008H131.359V30.0168H132.943L133.051 31.3488C133.411 30.4308 134.293 29.8188 135.499 29.8188C135.805 29.8188 136.057 29.8548 136.399 29.9268ZM141.467 39.0168C138.875 39.0168 137.093 37.1448 137.093 34.4088C137.093 31.6548 138.839 29.7468 141.395 29.7468C143.897 29.7468 145.535 31.4748 145.535 34.0848V34.7148L138.731 34.7328C138.857 36.5868 139.829 37.6128 141.503 37.6128C142.817 37.6128 143.681 37.0728 143.969 36.0648H145.553C145.121 37.9548 143.645 39.0168 141.467 39.0168ZM141.395 31.1688C139.919 31.1688 138.983 32.0508 138.767 33.5988H143.843C143.843 32.1408 142.889 31.1688 141.395 31.1688Z" fill="#111111"/>
<path d="M35.6095 38.3675C31.7228 38.3437 28.5078 29.921 28.5078 25.6315C28.5078 18.6247 33.4592 17.0907 35.3674 17.0907C36.2273 17.0907 37.1456 17.4492 37.9555 17.7665C38.5219 17.9878 39.1076 18.2162 39.4334 18.2162C39.6284 18.2162 40.0879 18.0219 40.4936 17.8514C41.3588 17.4857 42.4354 17.0312 43.6891 17.0312C43.6914 17.0312 43.6944 17.0312 43.6966 17.0312C44.6327 17.0312 47.4712 17.2494 49.1777 19.9699L49.5774 20.6076L49.0021 21.0685C48.1803 21.7268 46.6807 22.9276 46.6807 25.3064C46.6807 28.1237 48.379 29.2072 49.1949 29.7283C49.555 29.9583 49.9278 30.1955 49.9278 30.7142C49.9278 31.0529 47.3815 38.3254 43.6839 38.3254C42.7791 38.3254 42.1395 38.0367 41.5754 37.7821C41.0046 37.5243 40.5122 37.3023 39.6986 37.3023C39.2861 37.3023 38.7646 37.5093 38.2125 37.729C37.4579 38.028 36.6039 38.3675 35.6349 38.3675H35.6095Z" fill="#111111"/>
<path d="M43.6788 10.2422C43.7663 13.7642 41.5089 16.2076 39.2542 16.0543C38.8826 13.2437 41.5086 10.2422 43.6788 10.2422Z" fill="#111111"/>
</g>
<rect x="1.14922" y="0.45" width="179.1" height="53.1" stroke="white" stroke-width="0.9"/>
<defs>
<clipPath id="clip0_7154_74664">
<rect x="0.699219" width="180" height="54" fill="white"/>
</clipPath>
</defs>
</svg>
