<svg width="50" height="49" viewBox="0 0 50 49" fill="none" xmlns="http://www.w3.org/2000/svg">
<rect x="0.980469" y="0.195312" width="48.5492" height="48.5492" rx="6.06865" fill="#33357D"/>
<path d="M25.2553 20.4241C30.2828 20.4241 34.3583 19.0656 34.3583 17.3898C34.3583 15.714 30.2828 14.3555 25.2553 14.3555C20.2279 14.3555 16.1523 15.714 16.1523 17.3898C16.1523 19.0656 20.2279 20.4241 25.2553 20.4241Z" stroke="white" stroke-width="2.42746" stroke-linecap="round" stroke-linejoin="round"/>
<path d="M34.3583 24.4688C34.3583 26.1477 30.3125 27.5031 25.2553 27.5031C20.1981 27.5031 16.1523 26.1477 16.1523 24.4688" stroke="white" stroke-width="2.42746" stroke-linecap="round" stroke-linejoin="round"/>
<path d="M16.1523 17.3906V31.5508C16.1523 33.2298 20.1981 34.5851 25.2553 34.5851C30.3125 34.5851 34.3583 33.2298 34.3583 31.5508V17.3906" stroke="white" stroke-width="2.42746" stroke-linecap="round" stroke-linejoin="round"/>
</svg>
