<svg width="608" height="534" viewBox="0 0 608 534" fill="none" xmlns="http://www.w3.org/2000/svg">
<rect x="145.5" y="19.1953" width="283" height="415" rx="19" fill="#E4EDFF"/>
<g filter="url(#filter0_d_7558_49525)">
<rect width="187" height="160" rx="15" transform="matrix(-1 0 0 1 247 57)" fill="white"/>
</g>
<g filter="url(#filter1_d_7558_49525)">
<rect x="351" y="176" width="197" height="294" rx="12.2" fill="white"/>
</g>
<rect x="351" y="176" width="197.276" height="213.546" rx="12.2026" fill="white"/>
<path d="M351 204.227H548.589V451.256C548.589 456.942 548.589 459.785 547.66 462.027C546.421 465.017 544.046 467.393 541.056 468.631C538.813 469.56 535.971 469.56 530.285 469.56H369.304C363.618 469.56 360.775 469.56 358.533 468.631C355.543 467.393 353.167 465.017 351.929 462.027C351 459.785 351 456.942 351 451.256V204.227Z" fill="#F1F5F9"/>
<rect x="379.473" y="189.219" width="66.0976" height="6.10132" rx="3.05066" fill="#E2E8F0"/>
<circle cx="367.271" cy="192.271" r="4.06754" fill="#E2E8F0"/>
<rect x="451.672" y="222.777" width="84.4016" height="26.439" rx="8.13509" fill="white"/>
<rect x="460.824" y="231.93" width="66.0976" height="8.13509" rx="4.06754" fill="#E2E8F0"/>
<rect x="363.207" y="216.674" width="81.3509" height="79.3171" rx="8.13509" fill="white"/>
<path d="M434.392 256.333C434.392 273.181 420.734 286.839 403.885 286.839C387.037 286.839 373.379 273.181 373.379 256.333C373.379 239.484 387.037 225.826 403.885 225.826C420.734 225.826 434.392 239.484 434.392 256.333ZM380.31 256.333C380.31 269.353 390.865 279.908 403.885 279.908C416.906 279.908 427.461 269.353 427.461 256.333C427.461 243.313 416.906 232.758 403.885 232.758C390.865 232.758 380.31 243.313 380.31 256.333Z" fill="#F1F5F9"/>
<path d="M402.571 227.89C402.519 226.768 403.388 225.81 404.511 225.833C409.951 225.944 415.276 227.51 419.926 230.384C425.154 233.615 429.284 238.351 431.774 243.969C434.265 249.588 435.001 255.827 433.885 261.871C432.893 267.247 430.477 272.244 426.906 276.35C426.169 277.198 424.876 277.198 424.079 276.406L422.048 274.387C421.251 273.595 421.255 272.312 421.975 271.451C424.57 268.345 426.33 264.615 427.069 260.613C427.931 255.942 427.363 251.12 425.438 246.778C423.513 242.436 420.321 238.777 416.282 236.28C412.82 234.14 408.874 232.939 404.83 232.776C403.708 232.731 402.755 231.873 402.703 230.751L402.571 227.89Z" fill="#2563EB"/>
<path d="M422.961 277.471C423.713 278.305 423.651 279.597 422.769 280.293C419.317 283.013 415.311 284.961 411.022 285.993C406.073 287.184 400.904 287.117 395.987 285.799C391.07 284.481 386.561 281.954 382.871 278.447C379.673 275.408 377.178 271.718 375.55 267.636C375.134 266.592 375.726 265.443 376.795 265.097L379.52 264.215C380.588 263.87 381.727 264.46 382.163 265.495C383.423 268.48 385.287 271.181 387.646 273.422C390.497 276.132 393.982 278.086 397.782 279.104C401.581 280.123 405.576 280.174 409.4 279.254C412.564 278.493 415.529 277.086 418.113 275.131C419.008 274.453 420.289 274.511 421.042 275.345L422.961 277.471Z" fill="#38BDF8"/>
<path d="M376.37 263.654C375.285 263.943 374.164 263.298 373.948 262.196C373.028 257.5 373.226 252.653 374.525 248.048C374.83 246.967 376 246.416 377.059 246.792L379.757 247.752C380.815 248.128 381.359 249.29 381.075 250.376C380.22 253.652 380.08 257.075 380.665 260.409C380.86 261.516 380.223 262.629 379.138 262.918L376.37 263.654Z" fill="#8B5CF6"/>
<path d="M392.907 260.164L396.781 252.503V252.438H392.301V251.289H398.168V252.477L394.307 260.164H392.907ZM402.574 260.311C401.889 260.309 401.304 260.128 400.819 259.77C400.333 259.412 399.962 258.89 399.705 258.205C399.448 257.521 399.319 256.696 399.319 255.731C399.319 254.769 399.448 253.947 399.705 253.265C399.965 252.584 400.338 252.064 400.823 251.705C401.311 251.347 401.895 251.168 402.574 251.168C403.253 251.168 403.835 251.349 404.32 251.71C404.805 252.068 405.177 252.588 405.434 253.27C405.694 253.949 405.824 254.769 405.824 255.731C405.824 256.699 405.695 257.525 405.438 258.21C405.181 258.892 404.81 259.413 404.324 259.774C403.839 260.132 403.256 260.311 402.574 260.311ZM402.574 259.154C403.175 259.154 403.644 258.861 403.982 258.275C404.323 257.688 404.493 256.84 404.493 255.731C404.493 254.994 404.415 254.372 404.259 253.863C404.106 253.352 403.885 252.965 403.596 252.702C403.31 252.436 402.97 252.303 402.574 252.303C401.976 252.303 401.506 252.598 401.165 253.187C400.825 253.777 400.653 254.625 400.65 255.731C400.65 256.471 400.726 257.096 400.879 257.607C401.035 258.116 401.256 258.502 401.542 258.764C401.828 259.024 402.172 259.154 402.574 259.154ZM411.993 258.5V258.032C411.993 257.697 412.063 257.391 412.201 257.113C412.343 256.833 412.548 256.609 412.817 256.442C413.088 256.271 413.416 256.186 413.8 256.186C414.193 256.186 414.523 256.27 414.788 256.437C415.054 256.605 415.255 256.829 415.391 257.109C415.529 257.389 415.599 257.697 415.599 258.032V258.5C415.599 258.835 415.529 259.143 415.391 259.423C415.252 259.7 415.048 259.924 414.78 260.095C414.514 260.262 414.187 260.346 413.8 260.346C413.41 260.346 413.081 260.262 412.812 260.095C412.544 259.924 412.34 259.7 412.201 259.423C412.063 259.143 411.993 258.835 411.993 258.5ZM413.003 258.032V258.5C413.003 258.749 413.062 258.974 413.181 259.176C413.299 259.378 413.506 259.479 413.8 259.479C414.092 259.479 414.296 259.378 414.411 259.176C414.527 258.974 414.585 258.749 414.585 258.5V258.032C414.585 257.784 414.528 257.558 414.416 257.356C414.306 257.154 414.101 257.053 413.8 257.053C413.511 257.053 413.306 257.154 413.185 257.356C413.064 257.558 413.003 257.784 413.003 258.032ZM407.53 253.421V252.953C407.53 252.618 407.599 252.311 407.738 252.03C407.88 251.75 408.085 251.526 408.353 251.359C408.625 251.191 408.953 251.107 409.337 251.107C409.73 251.107 410.059 251.191 410.325 251.359C410.591 251.526 410.792 251.75 410.927 252.03C411.063 252.311 411.131 252.618 411.131 252.953V253.421C411.131 253.757 411.062 254.064 410.923 254.344C410.787 254.622 410.585 254.846 410.316 255.016C410.051 255.184 409.724 255.267 409.337 255.267C408.944 255.267 408.613 255.184 408.345 255.016C408.079 254.846 407.877 254.622 407.738 254.344C407.599 254.064 407.53 253.757 407.53 253.421ZM408.544 252.953V253.421C408.544 253.67 408.602 253.895 408.717 254.097C408.836 254.3 409.042 254.401 409.337 254.401C409.626 254.401 409.828 254.3 409.944 254.097C410.062 253.895 410.121 253.67 410.121 253.421V252.953C410.121 252.705 410.065 252.48 409.952 252.277C409.84 252.075 409.635 251.974 409.337 251.974C409.048 251.974 408.843 252.075 408.722 252.277C408.603 252.48 408.544 252.705 408.544 252.953ZM407.942 260.164L414.043 251.289H415.079L408.977 260.164H407.942Z" fill="#0F172A"/>
<rect x="363.207" y="302.514" width="172.871" height="48.8105" rx="8.13509" fill="white"/>
<rect x="371.344" y="314.717" width="68.1314" height="6.10132" rx="3.05066" fill="#E2E8F0"/>
<rect x="371.344" y="333.02" width="58.9794" height="6.10132" rx="3.05066" fill="#F1F5F9"/>
<path d="M480.655 323.573V314.328H481.247V323.573H480.655ZM482.226 317.38C482.197 317.089 482.073 316.862 481.854 316.701C481.635 316.54 481.338 316.459 480.962 316.459C480.707 316.459 480.491 316.495 480.316 316.567C480.14 316.637 480.005 316.735 479.911 316.86C479.82 316.985 479.774 317.127 479.774 317.286C479.769 317.418 479.797 317.534 479.857 317.633C479.92 317.731 480.005 317.817 480.113 317.889C480.222 317.959 480.347 318.02 480.489 318.073C480.631 318.124 480.783 318.167 480.944 318.203L481.608 318.362C481.931 318.434 482.227 318.531 482.497 318.651C482.766 318.771 483 318.919 483.197 319.095C483.395 319.271 483.547 319.478 483.656 319.716C483.767 319.955 483.823 320.228 483.826 320.536C483.823 320.989 483.708 321.381 483.479 321.713C483.253 322.043 482.925 322.299 482.497 322.482C482.071 322.663 481.557 322.753 480.955 322.753C480.358 322.753 479.838 322.662 479.395 322.479C478.954 322.296 478.61 322.025 478.362 321.666C478.116 321.305 477.988 320.859 477.976 320.326H479.489C479.505 320.574 479.576 320.781 479.702 320.948C479.829 321.111 479.999 321.235 480.211 321.32C480.425 321.401 480.667 321.442 480.937 321.442C481.201 321.442 481.431 321.404 481.626 321.327C481.824 321.25 481.977 321.143 482.085 321.005C482.193 320.868 482.247 320.71 482.247 320.532C482.247 320.366 482.198 320.227 482.099 320.113C482.003 320 481.861 319.904 481.673 319.825C481.488 319.745 481.26 319.673 480.991 319.608L480.186 319.406C479.562 319.254 479.07 319.017 478.709 318.694C478.348 318.372 478.168 317.937 478.171 317.391C478.168 316.943 478.287 316.552 478.528 316.217C478.771 315.882 479.105 315.621 479.528 315.433C479.952 315.246 480.434 315.152 480.973 315.152C481.522 315.152 482.001 315.246 482.41 315.433C482.822 315.621 483.142 315.882 483.371 316.217C483.599 316.552 483.717 316.939 483.724 317.38H482.226ZM488.051 315.253V322.648H486.488V316.737H486.445L484.751 317.799V316.412L486.582 315.253H488.051ZM491.098 321.637L491.059 322.035C491.027 322.352 490.967 322.669 490.878 322.984C490.791 323.302 490.7 323.59 490.604 323.847C490.51 324.105 490.434 324.307 490.376 324.454H489.379C489.416 324.312 489.465 324.113 489.527 323.858C489.59 323.605 489.649 323.321 489.704 323.006C489.76 322.691 489.795 322.369 489.809 322.042L489.827 321.637H491.098ZM492.49 322.648V321.522L495.123 319.084C495.347 318.868 495.535 318.673 495.686 318.499C495.84 318.326 495.957 318.156 496.036 317.99C496.116 317.822 496.156 317.64 496.156 317.445C496.156 317.228 496.106 317.042 496.008 316.885C495.909 316.726 495.774 316.605 495.603 316.52C495.432 316.434 495.238 316.39 495.022 316.39C494.795 316.39 494.598 316.436 494.43 316.528C494.261 316.619 494.131 316.75 494.04 316.921C493.948 317.092 493.902 317.296 493.902 317.532H492.418C492.418 317.048 492.528 316.628 492.747 316.271C492.966 315.915 493.273 315.639 493.668 315.444C494.062 315.249 494.517 315.152 495.033 315.152C495.562 315.152 496.023 315.246 496.416 315.433C496.81 315.619 497.117 315.876 497.336 316.206C497.556 316.536 497.665 316.914 497.665 317.34C497.665 317.619 497.61 317.895 497.499 318.167C497.391 318.439 497.197 318.741 496.918 319.073C496.638 319.403 496.245 319.799 495.737 320.261L494.657 321.32V321.37H497.763V322.648H492.49ZM501.629 322.75C501.09 322.75 500.61 322.657 500.188 322.471C499.769 322.284 499.438 322.026 499.195 321.699C498.955 321.369 498.831 320.989 498.823 320.558H500.398C500.407 320.738 500.466 320.897 500.575 321.034C500.685 321.169 500.832 321.274 501.015 321.348C501.198 321.423 501.404 321.46 501.633 321.46C501.871 321.46 502.082 321.418 502.265 321.334C502.448 321.25 502.591 321.133 502.694 320.984C502.798 320.834 502.85 320.662 502.85 320.467C502.85 320.27 502.794 320.095 502.684 319.944C502.575 319.79 502.419 319.669 502.214 319.583C502.012 319.496 501.771 319.453 501.492 319.453H500.802V318.304H501.492C501.728 318.304 501.936 318.263 502.117 318.182C502.3 318.1 502.442 317.987 502.543 317.842C502.644 317.695 502.694 317.524 502.694 317.329C502.694 317.144 502.65 316.981 502.561 316.842C502.474 316.7 502.351 316.589 502.193 316.51C502.036 316.43 501.853 316.39 501.644 316.39C501.432 316.39 501.238 316.429 501.062 316.506C500.887 316.581 500.746 316.688 500.64 316.827C500.534 316.967 500.477 317.131 500.47 317.318H498.971C498.979 316.892 499.1 316.517 499.336 316.192C499.572 315.867 499.89 315.613 500.289 315.43C500.692 315.244 501.145 315.152 501.651 315.152C502.161 315.152 502.608 315.244 502.991 315.43C503.373 315.615 503.671 315.866 503.883 316.181C504.097 316.494 504.203 316.845 504.2 317.235C504.203 317.649 504.074 317.995 503.814 318.272C503.556 318.549 503.22 318.724 502.806 318.799V318.857C503.35 318.927 503.765 319.116 504.049 319.424C504.335 319.729 504.477 320.112 504.475 320.572C504.477 320.993 504.356 321.368 504.11 321.695C503.867 322.023 503.531 322.28 503.103 322.468C502.674 322.656 502.183 322.75 501.629 322.75ZM508.3 322.75C507.789 322.75 507.334 322.656 506.935 322.468C506.538 322.28 506.222 322.021 505.989 321.691C505.755 321.362 505.634 320.984 505.624 320.558H507.141C507.157 320.844 507.278 321.076 507.502 321.255C507.726 321.433 507.992 321.522 508.3 321.522C508.545 321.522 508.762 321.468 508.95 321.359C509.14 321.249 509.288 321.096 509.394 320.901C509.502 320.703 509.556 320.477 509.556 320.222C509.556 319.962 509.501 319.733 509.39 319.536C509.282 319.338 509.132 319.184 508.939 319.073C508.746 318.963 508.526 318.906 508.278 318.904C508.061 318.904 507.851 318.948 507.646 319.037C507.444 319.126 507.286 319.248 507.173 319.402L505.783 319.153L506.133 315.253H510.654V316.531H507.422L507.231 318.384H507.274C507.404 318.201 507.6 318.049 507.863 317.929C508.125 317.808 508.419 317.748 508.744 317.748C509.189 317.748 509.587 317.853 509.936 318.062C510.285 318.272 510.56 318.559 510.763 318.925C510.965 319.289 511.065 319.708 511.062 320.182C511.065 320.68 510.949 321.123 510.716 321.511C510.485 321.896 510.161 322.199 509.744 322.421C509.33 322.64 508.849 322.75 508.3 322.75ZM513.601 321.637L513.561 322.035C513.53 322.352 513.47 322.669 513.381 322.984C513.294 323.302 513.202 323.59 513.106 323.847C513.012 324.105 512.936 324.307 512.879 324.454H511.882C511.918 324.312 511.967 324.113 512.03 323.858C512.093 323.605 512.152 323.321 512.207 323.006C512.262 322.691 512.297 322.369 512.312 322.042L512.33 321.637H513.601ZM517.595 322.811C516.974 322.809 516.439 322.656 515.991 322.352C515.546 322.049 515.203 321.61 514.962 321.034C514.724 320.459 514.606 319.767 514.608 318.958C514.608 318.151 514.728 317.464 514.966 316.896C515.207 316.328 515.55 315.896 515.995 315.6C516.443 315.301 516.976 315.152 517.595 315.152C518.213 315.152 518.746 315.301 519.191 315.6C519.639 315.898 519.983 316.331 520.224 316.9C520.464 317.465 520.584 318.151 520.581 318.958C520.581 319.769 520.461 320.463 520.22 321.038C519.982 321.613 519.64 322.053 519.194 322.356C518.749 322.659 518.216 322.811 517.595 322.811ZM517.595 321.515C518.018 321.515 518.357 321.301 518.609 320.875C518.862 320.449 518.987 319.81 518.985 318.958C518.985 318.397 518.927 317.93 518.812 317.557C518.699 317.184 518.537 316.903 518.328 316.715C518.121 316.528 517.876 316.434 517.595 316.434C517.173 316.434 516.836 316.644 516.584 317.066C516.331 317.487 516.203 318.118 516.201 318.958C516.201 319.526 516.257 320 516.371 320.381C516.486 320.759 516.649 321.043 516.858 321.233C517.068 321.421 517.313 321.515 517.595 321.515ZM524.596 322.811C523.975 322.809 523.44 322.656 522.992 322.352C522.547 322.049 522.204 321.61 521.963 321.034C521.725 320.459 521.607 319.767 521.609 318.958C521.609 318.151 521.729 317.464 521.967 316.896C522.208 316.328 522.551 315.896 522.996 315.6C523.444 315.301 523.977 315.152 524.596 315.152C525.214 315.152 525.747 315.301 526.192 315.6C526.64 315.898 526.984 316.331 527.225 316.9C527.465 317.465 527.585 318.151 527.582 318.958C527.582 319.769 527.462 320.463 527.221 321.038C526.983 321.613 526.641 322.053 526.196 322.356C525.75 322.659 525.217 322.811 524.596 322.811ZM524.596 321.515C525.019 321.515 525.358 321.301 525.611 320.875C525.863 320.449 525.988 319.81 525.986 318.958C525.986 318.397 525.928 317.93 525.813 317.557C525.7 317.184 525.538 316.903 525.329 316.715C525.122 316.528 524.877 316.434 524.596 316.434C524.174 316.434 523.837 316.644 523.585 317.066C523.332 317.487 523.204 318.118 523.202 318.958C523.202 319.526 523.258 320 523.372 320.381C523.487 320.759 523.65 321.043 523.859 321.233C524.069 321.421 524.314 321.515 524.596 321.515Z" fill="#0F172A"/>
<path d="M491.414 333.614H490.697C490.655 333.408 490.581 333.227 490.475 333.071C490.371 332.915 490.244 332.784 490.094 332.678C489.945 332.57 489.781 332.489 489.6 332.435C489.419 332.382 489.23 332.355 489.033 332.355C488.675 332.355 488.351 332.445 488.06 332.626C487.771 332.807 487.541 333.074 487.369 333.426C487.2 333.779 487.115 334.211 487.115 334.723C487.115 335.236 487.2 335.668 487.369 336.021C487.541 336.373 487.771 336.64 488.06 336.821C488.351 337.002 488.675 337.092 489.033 337.092C489.23 337.092 489.419 337.065 489.6 337.011C489.781 336.957 489.945 336.878 490.094 336.772C490.244 336.664 490.371 336.532 490.475 336.376C490.581 336.218 490.655 336.037 490.697 335.833H491.414C491.36 336.135 491.262 336.406 491.119 336.645C490.977 336.883 490.8 337.087 490.588 337.254C490.376 337.42 490.138 337.546 489.874 337.633C489.612 337.719 489.332 337.763 489.033 337.763C488.529 337.763 488.08 337.639 487.687 337.393C487.294 337.146 486.985 336.796 486.76 336.341C486.535 335.887 486.422 335.347 486.422 334.723C486.422 334.099 486.535 333.56 486.76 333.106C486.985 332.651 487.294 332.301 487.687 332.054C488.08 331.808 488.529 331.684 489.033 331.684C489.332 331.684 489.612 331.728 489.874 331.814C490.138 331.901 490.376 332.028 490.588 332.196C490.8 332.361 490.977 332.564 491.119 332.802C491.262 333.039 491.36 333.31 491.414 333.614ZM494.282 337.774C493.881 337.774 493.53 337.679 493.227 337.488C492.927 337.297 492.692 337.031 492.523 336.688C492.355 336.345 492.271 335.944 492.271 335.486C492.271 335.024 492.355 334.62 492.523 334.276C492.692 333.931 492.927 333.663 493.227 333.473C493.53 333.282 493.881 333.187 494.282 333.187C494.682 333.187 495.033 333.282 495.333 333.473C495.636 333.663 495.871 333.931 496.038 334.276C496.208 334.62 496.293 335.024 496.293 335.486C496.293 335.944 496.208 336.345 496.038 336.688C495.871 337.031 495.636 337.297 495.333 337.488C495.033 337.679 494.682 337.774 494.282 337.774ZM494.282 337.162C494.586 337.162 494.837 337.084 495.033 336.928C495.229 336.772 495.375 336.567 495.469 336.312C495.564 336.058 495.611 335.783 495.611 335.486C495.611 335.189 495.564 334.913 495.469 334.657C495.375 334.401 495.229 334.194 495.033 334.036C494.837 333.878 494.586 333.799 494.282 333.799C493.978 333.799 493.727 333.878 493.531 334.036C493.334 334.194 493.189 334.401 493.095 334.657C493 334.913 492.953 335.189 492.953 335.486C492.953 335.783 493 336.058 493.095 336.312C493.189 336.567 493.334 336.772 493.531 336.928C493.727 337.084 493.978 337.162 494.282 337.162ZM497.333 337.682V333.244H497.992V333.938H498.05C498.142 333.701 498.291 333.517 498.497 333.386C498.704 333.253 498.951 333.187 499.24 333.187C499.533 333.187 499.776 333.253 499.971 333.386C500.167 333.517 500.32 333.701 500.43 333.938H500.476C500.59 333.708 500.76 333.526 500.988 333.392C501.215 333.255 501.487 333.187 501.805 333.187C502.202 333.187 502.526 333.311 502.779 333.559C503.031 333.806 503.157 334.19 503.157 334.712V337.682H502.475V334.712C502.475 334.384 502.386 334.15 502.207 334.01C502.028 333.869 501.817 333.799 501.574 333.799C501.262 333.799 501.02 333.893 500.849 334.082C500.678 334.269 500.592 334.506 500.592 334.793V337.682H499.899V334.643C499.899 334.39 499.817 334.187 499.653 334.033C499.489 333.877 499.278 333.799 499.02 333.799C498.843 333.799 498.678 333.846 498.523 333.941C498.371 334.035 498.248 334.166 498.154 334.333C498.061 334.499 498.015 334.691 498.015 334.908V337.682H497.333ZM504.404 339.346V333.244H505.062V333.949H505.143C505.193 333.872 505.263 333.774 505.351 333.655C505.442 333.533 505.571 333.425 505.738 333.331C505.908 333.235 506.137 333.187 506.426 333.187C506.8 333.187 507.129 333.28 507.414 333.467C507.699 333.654 507.921 333.918 508.081 334.261C508.241 334.604 508.321 335.008 508.321 335.475C508.321 335.944 508.241 336.352 508.081 336.697C507.921 337.039 507.7 337.305 507.417 337.494C507.134 337.681 506.807 337.774 506.438 337.774C506.153 337.774 505.924 337.727 505.753 337.633C505.581 337.536 505.45 337.427 505.357 337.306C505.265 337.183 505.193 337.081 505.143 337H505.086V339.346H504.404ZM505.074 335.463C505.074 335.798 505.123 336.094 505.221 336.35C505.32 336.604 505.463 336.803 505.652 336.948C505.841 337.09 506.072 337.162 506.345 337.162C506.63 337.162 506.868 337.087 507.059 336.936C507.251 336.784 507.396 336.58 507.492 336.324C507.59 336.066 507.639 335.779 507.639 335.463C507.639 335.151 507.591 334.87 507.495 334.619C507.401 334.367 507.257 334.168 507.064 334.021C506.874 333.873 506.634 333.799 506.345 333.799C506.068 333.799 505.835 333.869 505.646 334.01C505.457 334.149 505.315 334.343 505.218 334.593C505.122 334.842 505.074 335.132 505.074 335.463ZM510.043 331.765V337.682H509.361V331.765H510.043ZM513.152 337.774C512.724 337.774 512.356 337.68 512.046 337.491C511.737 337.3 511.5 337.035 511.332 336.694C511.166 336.351 511.084 335.952 511.084 335.498C511.084 335.043 511.166 334.643 511.332 334.296C511.5 333.947 511.733 333.676 512.031 333.481C512.332 333.285 512.682 333.187 513.083 333.187C513.314 333.187 513.542 333.225 513.767 333.302C513.993 333.379 514.198 333.504 514.383 333.678C514.568 333.849 514.715 334.076 514.825 334.359C514.934 334.643 514.989 334.991 514.989 335.405V335.694H511.569V335.105H514.296C514.296 334.854 514.246 334.631 514.146 334.435C514.048 334.238 513.907 334.083 513.724 333.969C513.543 333.856 513.329 333.799 513.083 333.799C512.811 333.799 512.576 333.866 512.378 334.001C512.181 334.134 512.03 334.307 511.924 334.521C511.818 334.735 511.765 334.964 511.765 335.209V335.602C511.765 335.937 511.823 336.221 511.939 336.454C512.056 336.685 512.219 336.861 512.427 336.983C512.635 337.102 512.877 337.162 513.152 337.162C513.331 337.162 513.493 337.137 513.637 337.087C513.784 337.035 513.91 336.957 514.016 336.855C514.122 336.751 514.204 336.622 514.261 336.468L514.92 336.653C514.851 336.877 514.734 337.073 514.57 337.243C514.407 337.41 514.205 337.541 513.964 337.635C513.723 337.728 513.452 337.774 513.152 337.774ZM517.956 333.244V333.822H515.657V333.244H517.956ZM516.327 332.181H517.009V336.411C517.009 336.603 517.037 336.748 517.092 336.844C517.15 336.938 517.223 337.002 517.312 337.035C517.403 337.065 517.498 337.081 517.598 337.081C517.673 337.081 517.735 337.077 517.783 337.069C517.831 337.06 517.87 337.052 517.898 337.046L518.037 337.659C517.991 337.676 517.926 337.693 517.844 337.711C517.761 337.73 517.656 337.739 517.529 337.739C517.336 337.739 517.147 337.698 516.962 337.615C516.78 337.532 516.627 337.406 516.506 337.237C516.387 337.067 516.327 336.853 516.327 336.595V332.181ZM520.795 337.774C520.367 337.774 519.998 337.68 519.688 337.491C519.38 337.3 519.142 337.035 518.975 336.694C518.809 336.351 518.726 335.952 518.726 335.498C518.726 335.043 518.809 334.643 518.975 334.296C519.142 333.947 519.375 333.676 519.674 333.481C519.974 333.285 520.325 333.187 520.725 333.187C520.956 333.187 521.185 333.225 521.41 333.302C521.635 333.379 521.84 333.504 522.025 333.678C522.21 333.849 522.357 334.076 522.467 334.359C522.577 334.643 522.632 334.991 522.632 335.405V335.694H519.211V335.105H521.939C521.939 334.854 521.888 334.631 521.788 334.435C521.69 334.238 521.55 334.083 521.367 333.969C521.186 333.856 520.972 333.799 520.725 333.799C520.454 333.799 520.219 333.866 520.02 334.001C519.824 334.134 519.673 334.307 519.567 334.521C519.461 334.735 519.408 334.964 519.408 335.209V335.602C519.408 335.937 519.466 336.221 519.581 336.454C519.699 336.685 519.861 336.861 520.069 336.983C520.277 337.102 520.519 337.162 520.795 337.162C520.974 337.162 521.135 337.137 521.28 337.087C521.426 337.035 521.552 336.957 521.658 336.855C521.764 336.751 521.846 336.622 521.904 336.468L522.563 336.653C522.493 336.877 522.377 337.073 522.213 337.243C522.049 337.41 521.847 337.541 521.606 337.635C521.366 337.728 521.095 337.774 520.795 337.774ZM525.345 337.774C524.975 337.774 524.648 337.681 524.365 337.494C524.082 337.305 523.861 337.039 523.701 336.697C523.541 336.352 523.461 335.944 523.461 335.475C523.461 335.008 523.541 334.604 523.701 334.261C523.861 333.918 524.083 333.654 524.368 333.467C524.653 333.28 524.982 333.187 525.356 333.187C525.645 333.187 525.873 333.235 526.041 333.331C526.21 333.425 526.339 333.533 526.428 333.655C526.518 333.774 526.589 333.872 526.639 333.949H526.697V331.765H527.378V337.682H526.72V337H526.639C526.589 337.081 526.517 337.183 526.425 337.306C526.333 337.427 526.201 337.536 526.029 337.633C525.858 337.727 525.63 337.774 525.345 337.774ZM525.437 337.162C525.71 337.162 525.942 337.09 526.13 336.948C526.319 336.803 526.463 336.604 526.561 336.35C526.659 336.094 526.708 335.798 526.708 335.463C526.708 335.132 526.66 334.842 526.564 334.593C526.467 334.343 526.325 334.149 526.136 334.01C525.947 333.869 525.714 333.799 525.437 333.799C525.148 333.799 524.907 333.873 524.715 334.021C524.524 334.168 524.381 334.367 524.284 334.619C524.19 334.87 524.143 335.151 524.143 335.463C524.143 335.779 524.191 336.066 524.287 336.324C524.385 336.58 524.53 336.784 524.721 336.936C524.913 337.087 525.152 337.162 525.437 337.162Z" fill="#34D399"/>
<rect x="363.207" y="358.264" width="172.871" height="48.8105" rx="8.13509" fill="white"/>
<rect x="371.344" y="370.465" width="68.1314" height="6.10132" rx="3.05066" fill="#E2E8F0"/>
<rect x="371.344" y="388.768" width="58.9794" height="6.10132" rx="3.05066" fill="#F1F5F9"/>
<path d="M479.805 379.323V370.078H480.397V379.323H479.805ZM481.376 373.13C481.347 372.839 481.223 372.612 481.004 372.451C480.785 372.29 480.488 372.209 480.112 372.209C479.857 372.209 479.642 372.245 479.466 372.317C479.29 372.387 479.155 372.485 479.061 372.61C478.97 372.735 478.924 372.877 478.924 373.036C478.919 373.168 478.947 373.284 479.007 373.383C479.07 373.481 479.155 373.567 479.264 373.639C479.372 373.709 479.497 373.77 479.639 373.823C479.781 373.874 479.933 373.917 480.094 373.953L480.759 374.112C481.081 374.184 481.377 374.281 481.647 374.401C481.917 374.521 482.15 374.669 482.347 374.845C482.545 375.021 482.698 375.228 482.806 375.466C482.917 375.705 482.973 375.978 482.976 376.286C482.973 376.739 482.858 377.131 482.629 377.463C482.403 377.793 482.075 378.049 481.647 378.232C481.221 378.413 480.707 378.503 480.105 378.503C479.508 378.503 478.988 378.412 478.545 378.229C478.104 378.046 477.76 377.775 477.512 377.416C477.267 377.055 477.138 376.609 477.126 376.076H478.639C478.656 376.324 478.727 376.531 478.852 376.698C478.979 376.861 479.149 376.985 479.361 377.07C479.575 377.151 479.817 377.192 480.087 377.192C480.352 377.192 480.582 377.154 480.777 377.077C480.974 377 481.127 376.893 481.235 376.755C481.344 376.618 481.398 376.46 481.398 376.282C481.398 376.116 481.348 375.977 481.25 375.863C481.153 375.75 481.011 375.654 480.824 375.575C480.638 375.495 480.411 375.423 480.141 375.358L479.336 375.156C478.712 375.004 478.22 374.767 477.859 374.444C477.498 374.122 477.318 373.687 477.321 373.141C477.318 372.693 477.438 372.302 477.678 371.967C477.921 371.632 478.255 371.371 478.679 371.183C479.102 370.996 479.584 370.902 480.123 370.902C480.672 370.902 481.151 370.996 481.56 371.183C481.972 371.371 482.292 371.632 482.521 371.967C482.749 372.302 482.867 372.689 482.875 373.13H481.376ZM483.984 378.398V377.272L486.617 374.834C486.841 374.618 487.028 374.423 487.18 374.249C487.334 374.076 487.451 373.906 487.53 373.74C487.61 373.572 487.649 373.39 487.649 373.195C487.649 372.978 487.6 372.792 487.501 372.635C487.403 372.476 487.268 372.355 487.097 372.27C486.926 372.184 486.732 372.14 486.516 372.14C486.289 372.14 486.092 372.186 485.923 372.278C485.755 372.369 485.625 372.5 485.533 372.671C485.442 372.842 485.396 373.046 485.396 373.282H483.912C483.912 372.798 484.021 372.378 484.241 372.021C484.46 371.665 484.767 371.389 485.161 371.194C485.556 370.999 486.011 370.902 486.526 370.902C487.056 370.902 487.517 370.996 487.909 371.183C488.304 371.369 488.611 371.626 488.83 371.956C489.049 372.286 489.159 372.664 489.159 373.09C489.159 373.369 489.103 373.645 488.993 373.917C488.884 374.189 488.691 374.491 488.411 374.823C488.132 375.153 487.739 375.549 487.231 376.011L486.151 377.07V377.12H489.256V378.398H483.984ZM492.076 377.387L492.036 377.785C492.005 378.102 491.945 378.419 491.855 378.734C491.769 379.052 491.677 379.34 491.581 379.597C491.487 379.855 491.411 380.057 491.354 380.204H490.357C490.393 380.062 490.442 379.863 490.505 379.608C490.567 379.355 490.626 379.071 490.682 378.756C490.737 378.441 490.772 378.119 490.787 377.792L490.805 377.387H492.076ZM493.468 378.398V377.272L496.1 374.834C496.324 374.618 496.512 374.423 496.664 374.249C496.818 374.076 496.934 373.906 497.014 373.74C497.093 373.572 497.133 373.39 497.133 373.195C497.133 372.978 497.084 372.792 496.985 372.635C496.886 372.476 496.752 372.355 496.581 372.27C496.41 372.184 496.216 372.14 495.999 372.14C495.773 372.14 495.575 372.186 495.407 372.278C495.238 372.369 495.108 372.5 495.017 372.671C494.925 372.842 494.88 373.046 494.88 373.282H493.396C493.396 372.798 493.505 372.378 493.724 372.021C493.943 371.665 494.25 371.389 494.645 371.194C495.04 370.999 495.495 370.902 496.01 370.902C496.54 370.902 497.001 370.996 497.393 371.183C497.788 371.369 498.095 371.626 498.314 371.956C498.533 372.286 498.643 372.664 498.643 373.09C498.643 373.369 498.587 373.645 498.476 373.917C498.368 374.189 498.174 374.491 497.895 374.823C497.616 375.153 497.222 375.549 496.714 376.011L495.634 377.07V377.12H498.74V378.398H493.468ZM502.711 378.5C502.331 378.497 501.964 378.433 501.61 378.308C501.258 378.183 500.943 377.98 500.664 377.698C500.385 377.416 500.163 377.043 499.999 376.578C499.838 376.114 499.757 375.543 499.757 374.867C499.76 374.246 499.831 373.691 499.971 373.202C500.113 372.711 500.315 372.294 500.577 371.953C500.842 371.611 501.159 371.351 501.527 371.173C501.895 370.992 502.308 370.902 502.766 370.902C503.259 370.902 503.695 370.998 504.073 371.191C504.451 371.381 504.754 371.64 504.983 371.967C505.214 372.294 505.353 372.662 505.402 373.068H503.86C503.799 372.811 503.673 372.609 503.48 372.462C503.288 372.315 503.05 372.242 502.766 372.242C502.284 372.242 501.918 372.451 501.668 372.87C501.42 373.289 501.293 373.858 501.289 374.578H501.339C501.45 374.359 501.599 374.172 501.787 374.018C501.977 373.862 502.193 373.743 502.433 373.661C502.676 373.576 502.933 373.534 503.202 373.534C503.641 373.534 504.031 373.638 504.372 373.845C504.714 374.049 504.984 374.331 505.181 374.69C505.379 375.049 505.477 375.459 505.477 375.921C505.477 376.422 505.361 376.867 505.127 377.257C504.896 377.647 504.572 377.953 504.156 378.175C503.742 378.394 503.26 378.502 502.711 378.5ZM502.704 377.272C502.945 377.272 503.16 377.214 503.35 377.098C503.541 376.983 503.69 376.826 503.798 376.629C503.907 376.432 503.961 376.21 503.961 375.965C503.961 375.719 503.907 375.499 503.798 375.304C503.692 375.109 503.545 374.953 503.358 374.838C503.17 374.722 502.956 374.665 502.715 374.665C502.534 374.665 502.367 374.698 502.213 374.766C502.061 374.833 501.928 374.927 501.812 375.047C501.699 375.168 501.61 375.307 501.545 375.466C501.48 375.623 501.447 375.79 501.447 375.968C501.447 376.206 501.502 376.424 501.61 376.622C501.721 376.819 501.87 376.977 502.058 377.095C502.248 377.213 502.463 377.272 502.704 377.272ZM509.424 378.5C509.044 378.497 508.677 378.433 508.323 378.308C507.972 378.183 507.656 377.98 507.377 377.698C507.098 377.416 506.876 377.043 506.712 376.578C506.551 376.114 506.47 375.543 506.47 374.867C506.473 374.246 506.544 373.691 506.684 373.202C506.826 372.711 507.028 372.294 507.29 371.953C507.555 371.611 507.872 371.351 508.24 371.173C508.608 370.992 509.021 370.902 509.479 370.902C509.972 370.902 510.408 370.998 510.786 371.191C511.164 371.381 511.467 371.64 511.696 371.967C511.927 372.294 512.066 372.662 512.115 373.068H510.573C510.513 372.811 510.386 372.609 510.194 372.462C510.001 372.315 509.763 372.242 509.479 372.242C508.997 372.242 508.631 372.451 508.381 372.87C508.133 373.289 508.006 373.858 508.002 374.578H508.052C508.163 374.359 508.312 374.172 508.5 374.018C508.69 373.862 508.906 373.743 509.146 373.661C509.389 373.576 509.646 373.534 509.915 373.534C510.354 373.534 510.744 373.638 511.085 373.845C511.427 374.049 511.697 374.331 511.894 374.69C512.092 375.049 512.19 375.459 512.19 375.921C512.19 376.422 512.074 376.867 511.84 377.257C511.609 377.647 511.285 377.953 510.869 378.175C510.455 378.394 509.973 378.502 509.424 378.5ZM509.417 377.272C509.658 377.272 509.873 377.214 510.064 377.098C510.254 376.983 510.403 376.826 510.511 376.629C510.62 376.432 510.674 376.21 510.674 375.965C510.674 375.719 510.62 375.499 510.511 375.304C510.405 375.109 510.259 374.953 510.071 374.838C509.883 374.722 509.669 374.665 509.428 374.665C509.247 374.665 509.08 374.698 508.926 374.766C508.774 374.833 508.641 374.927 508.525 375.047C508.412 375.168 508.323 375.307 508.258 375.466C508.193 375.623 508.16 375.79 508.16 375.968C508.16 376.206 508.215 376.424 508.323 376.622C508.434 376.819 508.583 376.977 508.771 377.095C508.961 377.213 509.176 377.272 509.417 377.272ZM514.678 377.387L514.638 377.785C514.607 378.102 514.546 378.419 514.457 378.734C514.371 379.052 514.279 379.34 514.183 379.597C514.089 379.855 514.013 380.057 513.955 380.204H512.959C512.995 380.062 513.044 379.863 513.107 379.608C513.169 379.355 513.228 379.071 513.284 378.756C513.339 378.441 513.374 378.119 513.388 377.792L513.407 377.387H514.678ZM516.084 378.398L519.15 372.332V372.281H515.579V371.003H520.768V372.299L517.698 378.398H516.084ZM524.58 378.561C523.959 378.559 523.425 378.406 522.977 378.102C522.531 377.799 522.188 377.36 521.948 376.784C521.709 376.209 521.591 375.517 521.594 374.708C521.594 373.901 521.713 373.214 521.951 372.646C522.192 372.078 522.535 371.646 522.98 371.35C523.428 371.051 523.961 370.902 524.58 370.902C525.199 370.902 525.731 371.051 526.176 371.35C526.624 371.648 526.968 372.081 527.209 372.65C527.45 373.215 527.569 373.901 527.567 374.708C527.567 375.519 527.446 376.213 527.205 376.788C526.967 377.363 526.625 377.803 526.18 378.106C525.735 378.409 525.201 378.561 524.58 378.561ZM524.58 377.265C525.004 377.265 525.342 377.051 525.595 376.625C525.848 376.199 525.973 375.56 525.97 374.708C525.97 374.147 525.913 373.68 525.797 373.307C525.684 372.934 525.523 372.653 525.313 372.465C525.106 372.278 524.862 372.184 524.58 372.184C524.159 372.184 523.822 372.394 523.569 372.816C523.316 373.237 523.189 373.868 523.186 374.708C523.186 375.276 523.243 375.75 523.356 376.131C523.472 376.509 523.634 376.793 523.844 376.983C524.053 377.171 524.299 377.265 524.58 377.265Z" fill="#0F172A"/>
<path d="M491.398 389.364H490.682C490.639 389.158 490.565 388.977 490.459 388.821C490.355 388.665 490.228 388.534 490.078 388.428C489.93 388.32 489.765 388.239 489.584 388.185C489.403 388.132 489.214 388.105 489.018 388.105C488.66 388.105 488.335 388.195 488.044 388.376C487.755 388.557 487.525 388.824 487.354 389.176C487.184 389.529 487.1 389.961 487.1 390.473C487.1 390.986 487.184 391.418 487.354 391.771C487.525 392.123 487.755 392.39 488.044 392.571C488.335 392.752 488.66 392.842 489.018 392.842C489.214 392.842 489.403 392.815 489.584 392.761C489.765 392.707 489.93 392.628 490.078 392.522C490.228 392.414 490.355 392.282 490.459 392.126C490.565 391.968 490.639 391.787 490.682 391.583H491.398C491.344 391.885 491.246 392.156 491.104 392.395C490.961 392.633 490.784 392.837 490.572 393.004C490.36 393.17 490.122 393.296 489.859 393.383C489.597 393.469 489.316 393.513 489.018 393.513C488.513 393.513 488.065 393.389 487.672 393.143C487.279 392.896 486.97 392.546 486.744 392.091C486.519 391.637 486.406 391.097 486.406 390.473C486.406 389.849 486.519 389.31 486.744 388.856C486.97 388.401 487.279 388.051 487.672 387.804C488.065 387.558 488.513 387.434 489.018 387.434C489.316 387.434 489.597 387.478 489.859 387.564C490.122 387.651 490.36 387.778 490.572 387.946C490.784 388.111 490.961 388.314 491.104 388.552C491.246 388.789 491.344 389.06 491.398 389.364ZM494.266 393.524C493.866 393.524 493.514 393.429 493.212 393.238C492.911 393.047 492.676 392.781 492.507 392.438C492.339 392.095 492.256 391.694 492.256 391.236C492.256 390.774 492.339 390.37 492.507 390.026C492.676 389.681 492.911 389.413 493.212 389.223C493.514 389.032 493.866 388.937 494.266 388.937C494.667 388.937 495.017 389.032 495.318 389.223C495.62 389.413 495.855 389.681 496.023 390.026C496.192 390.37 496.277 390.774 496.277 391.236C496.277 391.694 496.192 392.095 496.023 392.438C495.855 392.781 495.62 393.047 495.318 393.238C495.017 393.429 494.667 393.524 494.266 393.524ZM494.266 392.912C494.571 392.912 494.821 392.834 495.017 392.678C495.214 392.522 495.359 392.317 495.454 392.062C495.548 391.808 495.595 391.533 495.595 391.236C495.595 390.939 495.548 390.663 495.454 390.407C495.359 390.151 495.214 389.944 495.017 389.786C494.821 389.628 494.571 389.549 494.266 389.549C493.962 389.549 493.712 389.628 493.515 389.786C493.319 389.944 493.173 390.151 493.079 390.407C492.985 390.663 492.937 390.939 492.937 391.236C492.937 391.533 492.985 391.808 493.079 392.062C493.173 392.317 493.319 392.522 493.515 392.678C493.712 392.834 493.962 392.912 494.266 392.912ZM497.318 393.432V388.994H497.976V389.688H498.034C498.126 389.451 498.276 389.267 498.482 389.136C498.688 389.003 498.935 388.937 499.224 388.937C499.517 388.937 499.761 389.003 499.955 389.136C500.152 389.267 500.305 389.451 500.414 389.688H500.461C500.574 389.458 500.745 389.276 500.972 389.142C501.199 389.005 501.472 388.937 501.79 388.937C502.186 388.937 502.511 389.061 502.763 389.309C503.015 389.556 503.142 389.94 503.142 390.462V393.432H502.46V390.462C502.46 390.134 502.37 389.9 502.191 389.76C502.012 389.619 501.801 389.549 501.558 389.549C501.246 389.549 501.005 389.643 500.833 389.832C500.662 390.019 500.576 390.256 500.576 390.543V393.432H499.883V390.393C499.883 390.14 499.801 389.937 499.637 389.783C499.474 389.627 499.263 389.549 499.005 389.549C498.828 389.549 498.662 389.596 498.508 389.691C498.356 389.785 498.232 389.916 498.138 390.083C498.046 390.249 497.999 390.441 497.999 390.658V393.432H497.318ZM504.388 395.096V388.994H505.047V389.699H505.128C505.178 389.622 505.247 389.524 505.336 389.405C505.426 389.283 505.555 389.175 505.723 389.081C505.892 388.985 506.121 388.937 506.41 388.937C506.784 388.937 507.113 389.03 507.398 389.217C507.683 389.404 507.906 389.668 508.066 390.011C508.226 390.354 508.305 390.758 508.305 391.225C508.305 391.694 508.226 392.102 508.066 392.447C507.906 392.789 507.684 393.055 507.401 393.244C507.118 393.431 506.792 393.524 506.422 393.524C506.137 393.524 505.909 393.477 505.737 393.383C505.566 393.286 505.434 393.177 505.341 393.056C505.249 392.933 505.178 392.831 505.128 392.75H505.07V395.096H504.388ZM505.058 391.213C505.058 391.548 505.107 391.844 505.206 392.1C505.304 392.354 505.447 392.553 505.636 392.698C505.825 392.84 506.056 392.912 506.329 392.912C506.615 392.912 506.852 392.837 507.043 392.686C507.236 392.534 507.38 392.33 507.476 392.074C507.575 391.816 507.624 391.529 507.624 391.213C507.624 390.901 507.576 390.62 507.479 390.369C507.385 390.117 507.241 389.918 507.049 389.771C506.858 389.623 506.618 389.549 506.329 389.549C506.052 389.549 505.819 389.619 505.63 389.76C505.442 389.899 505.299 390.093 505.203 390.343C505.107 390.592 505.058 390.882 505.058 391.213ZM510.027 387.515V393.432H509.345V387.515H510.027ZM513.136 393.524C512.709 393.524 512.34 393.43 512.03 393.241C511.722 393.05 511.484 392.785 511.316 392.444C511.151 392.101 511.068 391.702 511.068 391.248C511.068 390.793 511.151 390.393 511.316 390.046C511.484 389.697 511.717 389.426 512.016 389.231C512.316 389.035 512.666 388.937 513.067 388.937C513.298 388.937 513.526 388.975 513.752 389.052C513.977 389.129 514.182 389.254 514.367 389.428C514.552 389.599 514.699 389.826 514.809 390.109C514.919 390.393 514.974 390.741 514.974 391.155V391.444H511.553V390.855H514.28C514.28 390.604 514.23 390.381 514.13 390.185C514.032 389.988 513.891 389.833 513.708 389.719C513.527 389.606 513.314 389.549 513.067 389.549C512.796 389.549 512.561 389.616 512.362 389.751C512.166 389.884 512.015 390.057 511.909 390.271C511.803 390.485 511.75 390.714 511.75 390.959V391.352C511.75 391.687 511.808 391.971 511.923 392.204C512.041 392.435 512.203 392.611 512.411 392.733C512.619 392.852 512.861 392.912 513.136 392.912C513.316 392.912 513.477 392.887 513.622 392.837C513.768 392.785 513.894 392.707 514 392.605C514.106 392.501 514.188 392.372 514.246 392.218L514.904 392.403C514.835 392.627 514.719 392.823 514.555 392.993C514.391 393.16 514.189 393.291 513.948 393.385C513.707 393.478 513.437 393.524 513.136 393.524ZM517.941 388.994V389.572H515.641V388.994H517.941ZM516.311 387.931H516.993V392.161C516.993 392.353 517.021 392.498 517.077 392.594C517.135 392.688 517.208 392.752 517.296 392.785C517.387 392.815 517.482 392.831 517.582 392.831C517.658 392.831 517.719 392.827 517.767 392.819C517.815 392.81 517.854 392.802 517.883 392.796L518.022 393.409C517.975 393.426 517.911 393.443 517.828 393.461C517.745 393.48 517.64 393.489 517.513 393.489C517.32 393.489 517.132 393.448 516.947 393.365C516.764 393.282 516.612 393.156 516.49 392.987C516.371 392.817 516.311 392.603 516.311 392.345V387.931ZM520.779 393.524C520.351 393.524 519.983 393.43 519.672 393.241C519.364 393.05 519.127 392.785 518.959 392.444C518.793 392.101 518.711 391.702 518.711 391.248C518.711 390.793 518.793 390.393 518.959 390.046C519.127 389.697 519.36 389.426 519.658 389.231C519.958 389.035 520.309 388.937 520.71 388.937C520.941 388.937 521.169 388.975 521.394 389.052C521.62 389.129 521.825 389.254 522.01 389.428C522.194 389.599 522.342 389.826 522.452 390.109C522.561 390.393 522.616 390.741 522.616 391.155V391.444H519.196V390.855H521.923C521.923 390.604 521.873 390.381 521.773 390.185C521.674 389.988 521.534 389.833 521.351 389.719C521.17 389.606 520.956 389.549 520.71 389.549C520.438 389.549 520.203 389.616 520.005 389.751C519.808 389.884 519.657 390.057 519.551 390.271C519.445 390.485 519.392 390.714 519.392 390.959V391.352C519.392 391.687 519.45 391.971 519.566 392.204C519.683 392.435 519.846 392.611 520.054 392.733C520.262 392.852 520.504 392.912 520.779 392.912C520.958 392.912 521.12 392.887 521.264 392.837C521.411 392.785 521.537 392.707 521.643 392.605C521.749 392.501 521.83 392.372 521.888 392.218L522.547 392.403C522.478 392.627 522.361 392.823 522.197 392.993C522.034 393.16 521.831 393.291 521.591 393.385C521.35 393.478 521.079 393.524 520.779 393.524ZM525.329 393.524C524.959 393.524 524.633 393.431 524.35 393.244C524.066 393.055 523.845 392.789 523.685 392.447C523.525 392.102 523.445 391.694 523.445 391.225C523.445 390.758 523.525 390.354 523.685 390.011C523.845 389.668 524.067 389.404 524.352 389.217C524.638 389.03 524.967 388.937 525.34 388.937C525.629 388.937 525.858 388.985 526.025 389.081C526.195 389.175 526.324 389.283 526.412 389.405C526.503 389.524 526.573 389.622 526.623 389.699H526.681V387.515H527.363V393.432H526.704V392.75H526.623C526.573 392.831 526.502 392.933 526.409 393.056C526.317 393.177 526.185 393.286 526.014 393.383C525.842 393.477 525.614 393.524 525.329 393.524ZM525.421 392.912C525.695 392.912 525.926 392.84 526.115 392.698C526.303 392.553 526.447 392.354 526.545 392.1C526.643 391.844 526.692 391.548 526.692 391.213C526.692 390.882 526.644 390.592 526.548 390.343C526.452 390.093 526.309 389.899 526.12 389.76C525.932 389.619 525.699 389.549 525.421 389.549C525.132 389.549 524.892 389.623 524.699 389.771C524.508 389.918 524.365 390.117 524.269 390.369C524.174 390.62 524.127 390.901 524.127 391.213C524.127 391.529 524.175 391.816 524.272 392.074C524.37 392.33 524.514 392.534 524.705 392.686C524.898 392.837 525.136 392.912 525.421 392.912Z" fill="#34D399"/>
<rect x="363.906" y="413.912" width="172.871" height="48.8105" rx="8.13509" fill="white"/>
<rect x="372.043" y="426.115" width="68.1314" height="6.10132" rx="3.05066" fill="#E2E8F0"/>
<rect x="372.043" y="444.418" width="58.9794" height="6.10132" rx="3.05066" fill="#F1F5F9"/>
<path d="M480.504 434.971V425.727H481.097V434.971H480.504ZM482.075 428.778C482.046 428.487 481.922 428.261 481.703 428.099C481.484 427.938 481.187 427.857 480.811 427.857C480.556 427.857 480.341 427.894 480.165 427.966C479.989 428.036 479.854 428.133 479.761 428.258C479.669 428.383 479.623 428.526 479.623 428.684C479.619 428.817 479.646 428.932 479.706 429.031C479.769 429.13 479.854 429.215 479.963 429.287C480.071 429.357 480.196 429.419 480.338 429.472C480.48 429.522 480.632 429.565 480.793 429.602L481.458 429.76C481.78 429.833 482.076 429.929 482.346 430.049C482.616 430.17 482.849 430.318 483.047 430.494C483.244 430.669 483.397 430.876 483.505 431.115C483.616 431.353 483.673 431.626 483.675 431.934C483.673 432.387 483.557 432.779 483.328 433.112C483.102 433.441 482.775 433.698 482.346 433.881C481.92 434.061 481.406 434.152 480.804 434.152C480.207 434.152 479.687 434.06 479.244 433.877C478.804 433.694 478.459 433.423 478.211 433.065C477.966 432.704 477.837 432.257 477.825 431.725H479.338C479.355 431.973 479.426 432.18 479.551 432.346C479.679 432.51 479.848 432.634 480.06 432.718C480.275 432.8 480.516 432.841 480.786 432.841C481.051 432.841 481.281 432.802 481.476 432.725C481.673 432.648 481.826 432.541 481.934 432.404C482.043 432.267 482.097 432.109 482.097 431.931C482.097 431.765 482.048 431.625 481.949 431.512C481.853 431.399 481.711 431.302 481.523 431.223C481.337 431.144 481.11 431.071 480.84 431.006L480.035 430.804C479.411 430.652 478.919 430.415 478.558 430.093C478.197 429.77 478.018 429.336 478.02 428.789C478.018 428.341 478.137 427.95 478.377 427.616C478.621 427.281 478.954 427.02 479.378 426.832C479.801 426.644 480.283 426.55 480.822 426.55C481.371 426.55 481.85 426.644 482.259 426.832C482.671 427.02 482.991 427.281 483.22 427.616C483.449 427.95 483.567 428.338 483.574 428.778H482.075ZM484.683 434.047V432.92L487.316 430.483C487.54 430.266 487.728 430.071 487.879 429.898C488.033 429.724 488.15 429.555 488.229 429.389C488.309 429.22 488.349 429.038 488.349 428.843C488.349 428.627 488.299 428.44 488.201 428.284C488.102 428.125 487.967 428.003 487.796 427.919C487.625 427.832 487.431 427.789 487.215 427.789C486.988 427.789 486.791 427.835 486.623 427.926C486.454 428.018 486.324 428.149 486.233 428.32C486.141 428.491 486.095 428.694 486.095 428.93H484.611C484.611 428.446 484.721 428.026 484.94 427.67C485.159 427.313 485.466 427.038 485.861 426.843C486.255 426.648 486.71 426.55 487.226 426.55C487.755 426.55 488.216 426.644 488.609 426.832C489.003 427.017 489.31 427.275 489.529 427.605C489.749 427.934 489.858 428.312 489.858 428.739C489.858 429.018 489.803 429.293 489.692 429.565C489.584 429.838 489.39 430.14 489.111 430.472C488.831 430.802 488.438 431.198 487.93 431.66L486.85 432.718V432.769H489.956V434.047H484.683ZM492.775 433.036L492.735 433.433C492.704 433.751 492.644 434.067 492.555 434.383C492.468 434.7 492.377 434.988 492.28 435.246C492.186 435.503 492.111 435.706 492.053 435.852H491.056C491.092 435.71 491.142 435.512 491.204 435.257C491.267 435.004 491.326 434.72 491.381 434.404C491.436 434.089 491.471 433.768 491.486 433.44L491.504 433.036H492.775ZM494.167 434.047V432.92L496.8 430.483C497.023 430.266 497.211 430.071 497.363 429.898C497.517 429.724 497.634 429.555 497.713 429.389C497.793 429.22 497.832 429.038 497.832 428.843C497.832 428.627 497.783 428.44 497.684 428.284C497.586 428.125 497.451 428.003 497.28 427.919C497.109 427.832 496.915 427.789 496.698 427.789C496.472 427.789 496.275 427.835 496.106 427.926C495.938 428.018 495.808 428.149 495.716 428.32C495.625 428.491 495.579 428.694 495.579 428.93H494.095C494.095 428.446 494.204 428.026 494.423 427.67C494.642 427.313 494.949 427.038 495.344 426.843C495.739 426.648 496.194 426.55 496.709 426.55C497.239 426.55 497.7 426.644 498.092 426.832C498.487 427.017 498.794 427.275 499.013 427.605C499.232 427.934 499.342 428.312 499.342 428.739C499.342 429.018 499.286 429.293 499.176 429.565C499.067 429.838 498.874 430.14 498.594 430.472C498.315 430.802 497.921 431.198 497.413 431.66L496.334 432.718V432.769H499.439V434.047H494.167ZM503.411 434.148C503.03 434.146 502.663 434.082 502.309 433.957C501.958 433.831 501.642 433.628 501.363 433.346C501.084 433.065 500.862 432.692 500.699 432.227C500.537 431.762 500.457 431.192 500.457 430.515C500.459 429.894 500.53 429.339 500.67 428.85C500.812 428.359 501.014 427.943 501.276 427.601C501.541 427.259 501.858 426.999 502.226 426.821C502.594 426.641 503.007 426.55 503.465 426.55C503.958 426.55 504.394 426.647 504.772 426.839C505.15 427.029 505.453 427.288 505.682 427.616C505.913 427.943 506.053 428.31 506.101 428.717H504.559C504.499 428.459 504.372 428.257 504.18 428.11C503.987 427.963 503.749 427.89 503.465 427.89C502.983 427.89 502.617 428.099 502.367 428.518C502.119 428.937 501.993 429.507 501.988 430.226H502.038C502.149 430.007 502.298 429.821 502.486 429.667C502.676 429.51 502.892 429.391 503.132 429.309C503.376 429.225 503.632 429.183 503.902 429.183C504.34 429.183 504.73 429.286 505.072 429.493C505.414 429.698 505.683 429.98 505.881 430.338C506.078 430.697 506.177 431.107 506.177 431.57C506.177 432.07 506.06 432.516 505.826 432.906C505.595 433.296 505.271 433.602 504.855 433.823C504.441 434.042 503.959 434.15 503.411 434.148ZM503.403 432.92C503.644 432.92 503.86 432.862 504.05 432.747C504.24 432.631 504.389 432.475 504.497 432.277C504.606 432.08 504.66 431.859 504.66 431.613C504.66 431.367 504.606 431.147 504.497 430.952C504.392 430.757 504.245 430.602 504.057 430.486C503.869 430.371 503.655 430.313 503.414 430.313C503.234 430.313 503.066 430.347 502.912 430.414C502.761 430.482 502.627 430.575 502.511 430.696C502.398 430.816 502.309 430.956 502.244 431.115C502.179 431.271 502.147 431.438 502.147 431.617C502.147 431.855 502.201 432.073 502.309 432.27C502.42 432.468 502.569 432.625 502.757 432.743C502.947 432.861 503.163 432.92 503.403 432.92ZM510.124 434.148C509.743 434.146 509.376 434.082 509.022 433.957C508.671 433.831 508.355 433.628 508.076 433.346C507.797 433.065 507.575 432.692 507.412 432.227C507.25 431.762 507.17 431.192 507.17 430.515C507.172 429.894 507.243 429.339 507.383 428.85C507.525 428.359 507.727 427.943 507.989 427.601C508.254 427.259 508.571 426.999 508.939 426.821C509.307 426.641 509.72 426.55 510.178 426.55C510.671 426.55 511.107 426.647 511.485 426.839C511.863 427.029 512.166 427.288 512.395 427.616C512.626 427.943 512.766 428.31 512.814 428.717H511.272C511.212 428.459 511.085 428.257 510.893 428.11C510.7 427.963 510.462 427.89 510.178 427.89C509.696 427.89 509.33 428.099 509.08 428.518C508.832 428.937 508.706 429.507 508.701 430.226H508.751C508.862 430.007 509.011 429.821 509.199 429.667C509.389 429.51 509.605 429.391 509.846 429.309C510.089 429.225 510.345 429.183 510.615 429.183C511.053 429.183 511.443 429.286 511.785 429.493C512.127 429.698 512.396 429.98 512.594 430.338C512.791 430.697 512.89 431.107 512.89 431.57C512.89 432.07 512.773 432.516 512.539 432.906C512.308 433.296 511.985 433.602 511.568 433.823C511.154 434.042 510.672 434.15 510.124 434.148ZM510.116 432.92C510.357 432.92 510.573 432.862 510.763 432.747C510.953 432.631 511.102 432.475 511.211 432.277C511.319 432.08 511.373 431.859 511.373 431.613C511.373 431.367 511.319 431.147 511.211 430.952C511.105 430.757 510.958 430.602 510.77 430.486C510.582 430.371 510.368 430.313 510.127 430.313C509.947 430.313 509.779 430.347 509.625 430.414C509.474 430.482 509.34 430.575 509.224 430.696C509.111 430.816 509.022 430.956 508.957 431.115C508.892 431.271 508.86 431.438 508.86 431.617C508.86 431.855 508.914 432.073 509.022 432.27C509.133 432.468 509.282 432.625 509.47 432.743C509.66 432.861 509.876 432.92 510.116 432.92ZM515.377 433.036L515.337 433.433C515.306 433.751 515.246 434.067 515.157 434.383C515.07 434.7 514.978 434.988 514.882 435.246C514.788 435.503 514.712 435.706 514.655 435.852H513.658C513.694 435.71 513.743 435.512 513.806 435.257C513.869 435.004 513.928 434.72 513.983 434.404C514.038 434.089 514.073 433.768 514.088 433.44L514.106 433.036H515.377ZM516.783 434.047L519.849 427.98V427.93H516.278V426.651H521.467V427.948L518.398 434.047H516.783ZM525.279 434.209C524.658 434.207 524.124 434.054 523.676 433.751C523.231 433.447 522.888 433.008 522.647 432.433C522.409 431.857 522.291 431.165 522.293 430.356C522.293 429.55 522.412 428.863 522.651 428.294C522.891 427.726 523.234 427.294 523.68 426.998C524.127 426.699 524.661 426.55 525.279 426.55C525.898 426.55 526.43 426.699 526.875 426.998C527.323 427.297 527.668 427.73 527.908 428.298C528.149 428.864 528.268 429.55 528.266 430.356C528.266 431.168 528.145 431.861 527.905 432.436C527.666 433.012 527.324 433.451 526.879 433.754C526.434 434.058 525.9 434.209 525.279 434.209ZM525.279 432.913C525.703 432.913 526.041 432.7 526.294 432.274C526.547 431.848 526.672 431.209 526.67 430.356C526.67 429.795 526.612 429.328 526.496 428.955C526.383 428.582 526.222 428.302 526.012 428.114C525.805 427.926 525.561 427.832 525.279 427.832C524.858 427.832 524.521 428.043 524.268 428.464C524.015 428.885 523.888 429.516 523.885 430.356C523.885 430.924 523.942 431.399 524.055 431.779C524.171 432.157 524.333 432.441 524.543 432.631C524.752 432.819 524.998 432.913 525.279 432.913Z" fill="#0F172A"/>
<path d="M492.098 445.013H491.381C491.339 444.806 491.265 444.625 491.159 444.469C491.055 444.313 490.928 444.182 490.777 444.077C490.629 443.969 490.464 443.888 490.283 443.834C490.102 443.78 489.914 443.753 489.717 443.753C489.359 443.753 489.034 443.843 488.744 444.025C488.455 444.206 488.224 444.472 488.053 444.825C487.884 445.177 487.799 445.61 487.799 446.122C487.799 446.634 487.884 447.067 488.053 447.419C488.224 447.771 488.455 448.038 488.744 448.219C489.034 448.4 489.359 448.491 489.717 448.491C489.914 448.491 490.102 448.464 490.283 448.41C490.464 448.356 490.629 448.276 490.777 448.17C490.928 448.062 491.055 447.93 491.159 447.774C491.265 447.616 491.339 447.435 491.381 447.231H492.098C492.044 447.534 491.945 447.804 491.803 448.043C491.66 448.282 491.483 448.485 491.271 448.653C491.059 448.818 490.822 448.944 490.558 449.031C490.296 449.118 490.016 449.161 489.717 449.161C489.212 449.161 488.764 449.038 488.371 448.791C487.978 448.545 487.669 448.194 487.444 447.74C487.218 447.285 487.106 446.746 487.106 446.122C487.106 445.498 487.218 444.959 487.444 444.504C487.669 444.05 487.978 443.699 488.371 443.453C488.764 443.206 489.212 443.083 489.717 443.083C490.016 443.083 490.296 443.126 490.558 443.213C490.822 443.299 491.059 443.427 491.271 443.594C491.483 443.76 491.66 443.962 491.803 444.201C491.945 444.438 492.044 444.708 492.098 445.013ZM494.965 449.173C494.565 449.173 494.213 449.077 493.911 448.887C493.611 448.696 493.376 448.429 493.206 448.086C493.039 447.743 492.955 447.343 492.955 446.885C492.955 446.422 493.039 446.019 493.206 445.674C493.376 445.329 493.611 445.062 493.911 444.871C494.213 444.68 494.565 444.585 494.965 444.585C495.366 444.585 495.717 444.68 496.017 444.871C496.319 445.062 496.554 445.329 496.722 445.674C496.891 446.019 496.976 446.422 496.976 446.885C496.976 447.343 496.891 447.743 496.722 448.086C496.554 448.429 496.319 448.696 496.017 448.887C495.717 449.077 495.366 449.173 494.965 449.173ZM494.965 448.56C495.27 448.56 495.52 448.482 495.717 448.326C495.913 448.17 496.058 447.965 496.153 447.711C496.247 447.457 496.294 447.181 496.294 446.885C496.294 446.588 496.247 446.312 496.153 446.055C496.058 445.799 495.913 445.592 495.717 445.434C495.52 445.276 495.27 445.197 494.965 445.197C494.661 445.197 494.411 445.276 494.214 445.434C494.018 445.592 493.872 445.799 493.778 446.055C493.684 446.312 493.637 446.588 493.637 446.885C493.637 447.181 493.684 447.457 493.778 447.711C493.872 447.965 494.018 448.17 494.214 448.326C494.411 448.482 494.661 448.56 494.965 448.56ZM498.017 449.08V444.643H498.675V445.336H498.733C498.826 445.099 498.975 444.915 499.181 444.784C499.387 444.651 499.635 444.585 499.923 444.585C500.216 444.585 500.46 444.651 500.654 444.784C500.851 444.915 501.004 445.099 501.114 445.336H501.16C501.274 445.107 501.444 444.925 501.671 444.79C501.899 444.653 502.171 444.585 502.489 444.585C502.886 444.585 503.21 444.709 503.462 444.958C503.715 445.204 503.841 445.588 503.841 446.11V449.08H503.159V446.11C503.159 445.783 503.069 445.549 502.89 445.408C502.711 445.268 502.5 445.197 502.258 445.197C501.946 445.197 501.704 445.292 501.533 445.481C501.361 445.667 501.275 445.904 501.275 446.191V449.08H500.582V446.041C500.582 445.789 500.5 445.585 500.337 445.431C500.173 445.275 499.962 445.197 499.704 445.197C499.527 445.197 499.361 445.245 499.207 445.339C499.055 445.433 498.932 445.564 498.837 445.732C498.745 445.897 498.699 446.089 498.699 446.307V449.08H498.017ZM505.087 450.744V444.643H505.746V445.348H505.827C505.877 445.271 505.946 445.172 506.035 445.053C506.125 444.932 506.254 444.824 506.422 444.729C506.592 444.633 506.821 444.585 507.11 444.585C507.483 444.585 507.813 444.678 508.098 444.865C508.383 445.052 508.605 445.317 508.765 445.66C508.925 446.002 509.005 446.407 509.005 446.873C509.005 447.343 508.925 447.75 508.765 448.095C508.605 448.438 508.384 448.704 508.1 448.892C507.817 449.079 507.491 449.173 507.121 449.173C506.836 449.173 506.608 449.125 506.436 449.031C506.265 448.935 506.133 448.826 506.041 448.705C505.948 448.581 505.877 448.479 505.827 448.398H505.769V450.744H505.087ZM505.758 446.861C505.758 447.197 505.807 447.492 505.905 447.748C506.003 448.003 506.147 448.202 506.335 448.346C506.524 448.489 506.755 448.56 507.029 448.56C507.314 448.56 507.552 448.485 507.742 448.335C507.935 448.183 508.079 447.978 508.176 447.722C508.274 447.464 508.323 447.177 508.323 446.861C508.323 446.549 508.275 446.268 508.178 446.018C508.084 445.766 507.941 445.566 507.748 445.42C507.557 445.272 507.318 445.197 507.029 445.197C506.751 445.197 506.518 445.268 506.33 445.408C506.141 445.547 505.998 445.741 505.902 445.992C505.806 446.24 505.758 446.53 505.758 446.861ZM510.726 443.164V449.08H510.045V443.164H510.726ZM513.836 449.173C513.408 449.173 513.039 449.078 512.729 448.889C512.421 448.699 512.183 448.433 512.016 448.092C511.85 447.749 511.767 447.351 511.767 446.896C511.767 446.442 511.85 446.041 512.016 445.694C512.183 445.346 512.416 445.074 512.715 444.88C513.015 444.683 513.366 444.585 513.766 444.585C513.997 444.585 514.226 444.623 514.451 444.701C514.676 444.778 514.881 444.903 515.066 445.076C515.251 445.247 515.399 445.475 515.508 445.758C515.618 446.041 515.673 446.39 515.673 446.804V447.093H512.253V446.503H514.98C514.98 446.253 514.93 446.029 514.829 445.833C514.731 445.637 514.591 445.481 514.408 445.368C514.227 445.254 514.013 445.197 513.766 445.197C513.495 445.197 513.26 445.265 513.061 445.4C512.865 445.533 512.714 445.706 512.608 445.92C512.502 446.133 512.449 446.363 512.449 446.607V447C512.449 447.335 512.507 447.619 512.622 447.852C512.74 448.083 512.903 448.26 513.111 448.381C513.319 448.5 513.56 448.56 513.836 448.56C514.015 448.56 514.177 448.535 514.321 448.485C514.467 448.433 514.593 448.356 514.699 448.254C514.805 448.15 514.887 448.021 514.945 447.867L515.604 448.052C515.534 448.275 515.418 448.471 515.254 448.641C515.09 448.809 514.888 448.939 514.647 449.034C514.407 449.126 514.136 449.173 513.836 449.173ZM518.64 444.643V445.221H516.34V444.643H518.64ZM517.011 443.58H517.692V447.809C517.692 448.002 517.72 448.146 517.776 448.242C517.834 448.337 517.907 448.4 517.996 448.433C518.086 448.464 518.181 448.479 518.282 448.479C518.357 448.479 518.418 448.475 518.466 448.468C518.515 448.458 518.553 448.45 518.582 448.445L518.721 449.057C518.674 449.074 518.61 449.092 518.527 449.109C518.444 449.128 518.339 449.138 518.212 449.138C518.02 449.138 517.831 449.096 517.646 449.014C517.463 448.931 517.311 448.805 517.19 448.635C517.07 448.466 517.011 448.252 517.011 447.994V443.58ZM521.478 449.173C521.051 449.173 520.682 449.078 520.372 448.889C520.064 448.699 519.826 448.433 519.658 448.092C519.493 447.749 519.41 447.351 519.41 446.896C519.41 446.442 519.493 446.041 519.658 445.694C519.826 445.346 520.059 445.074 520.357 444.88C520.658 444.683 521.008 444.585 521.409 444.585C521.64 444.585 521.868 444.623 522.093 444.701C522.319 444.778 522.524 444.903 522.709 445.076C522.894 445.247 523.041 445.475 523.151 445.758C523.261 446.041 523.315 446.39 523.315 446.804V447.093H519.895V446.503H522.622C522.622 446.253 522.572 446.029 522.472 445.833C522.374 445.637 522.233 445.481 522.05 445.368C521.869 445.254 521.655 445.197 521.409 445.197C521.137 445.197 520.902 445.265 520.704 445.4C520.507 445.533 520.356 445.706 520.25 445.92C520.144 446.133 520.091 446.363 520.091 446.607V447C520.091 447.335 520.149 447.619 520.265 447.852C520.382 448.083 520.545 448.26 520.753 448.381C520.961 448.5 521.203 448.56 521.478 448.56C521.657 448.56 521.819 448.535 521.963 448.485C522.11 448.433 522.236 448.356 522.342 448.254C522.448 448.15 522.53 448.021 522.587 447.867L523.246 448.052C523.177 448.275 523.06 448.471 522.897 448.641C522.733 448.809 522.531 448.939 522.29 449.034C522.049 449.126 521.779 449.173 521.478 449.173ZM526.028 449.173C525.658 449.173 525.332 449.079 525.049 448.892C524.766 448.704 524.544 448.438 524.384 448.095C524.225 447.75 524.145 447.343 524.145 446.873C524.145 446.407 524.225 446.002 524.384 445.66C524.544 445.317 524.767 445.052 525.052 444.865C525.337 444.678 525.666 444.585 526.04 444.585C526.329 444.585 526.557 444.633 526.724 444.729C526.894 444.824 527.023 444.932 527.111 445.053C527.202 445.172 527.272 445.271 527.322 445.348H527.38V443.164H528.062V449.08H527.403V448.398H527.322C527.272 448.479 527.201 448.581 527.109 448.705C527.016 448.826 526.884 448.935 526.713 449.031C526.541 449.125 526.313 449.173 526.028 449.173ZM526.121 448.56C526.394 448.56 526.625 448.489 526.814 448.346C527.003 448.202 527.146 448.003 527.244 447.748C527.343 447.492 527.392 447.197 527.392 446.861C527.392 446.53 527.344 446.24 527.247 445.992C527.151 445.741 527.008 445.547 526.82 445.408C526.631 445.268 526.398 445.197 526.121 445.197C525.832 445.197 525.591 445.272 525.398 445.42C525.208 445.566 525.064 445.766 524.968 446.018C524.874 446.268 524.826 446.549 524.826 446.861C524.826 447.177 524.875 447.464 524.971 447.722C525.069 447.978 525.213 448.183 525.404 448.335C525.597 448.485 525.836 448.56 526.121 448.56Z" fill="#34D399"/>
<rect x="451.672" y="261.418" width="57.9625" height="8.13509" rx="4.06754" fill="#E2E8F0"/>
<rect x="451.672" y="275.654" width="80.334" height="4.06754" rx="2.03377" fill="#E2E8F0"/>
<rect x="452.688" y="285.824" width="41.6923" height="4.06754" rx="2.03377" fill="#E2E8F0"/>
<defs>
<filter id="filter0_d_7558_49525" x="0.0347519" y="0.109893" width="306.93" height="279.93" filterUnits="userSpaceOnUse" color-interpolation-filters="sRGB">
<feFlood flood-opacity="0" result="BackgroundImageFix"/>
<feColorMatrix in="SourceAlpha" type="matrix" values="0 0 0 0 0 0 0 0 0 0 0 0 0 0 0 0 0 0 127 0" result="hardAlpha"/>
<feMorphology radius="13.8381" operator="dilate" in="SourceAlpha" result="effect1_dropShadow_7558_49525"/>
<feOffset dy="3.07514"/>
<feGaussianBlur stdDeviation="23.0636"/>
<feColorMatrix type="matrix" values="0 0 0 0 0.627592 0 0 0 0 0.679126 0 0 0 0 0.988333 0 0 0 0.33 0"/>
<feBlend mode="normal" in2="BackgroundImageFix" result="effect1_dropShadow_7558_49525"/>
<feBlend mode="normal" in="SourceGraphic" in2="effect1_dropShadow_7558_49525" result="shape"/>
</filter>
<filter id="filter1_d_7558_49525" x="291.035" y="119.11" width="316.93" height="413.93" filterUnits="userSpaceOnUse" color-interpolation-filters="sRGB">
<feFlood flood-opacity="0" result="BackgroundImageFix"/>
<feColorMatrix in="SourceAlpha" type="matrix" values="0 0 0 0 0 0 0 0 0 0 0 0 0 0 0 0 0 0 127 0" result="hardAlpha"/>
<feMorphology radius="13.8381" operator="dilate" in="SourceAlpha" result="effect1_dropShadow_7558_49525"/>
<feOffset dy="3.07514"/>
<feGaussianBlur stdDeviation="23.0636"/>
<feColorMatrix type="matrix" values="0 0 0 0 0.627592 0 0 0 0 0.679126 0 0 0 0 0.988333 0 0 0 0.33 0"/>
<feBlend mode="normal" in2="BackgroundImageFix" result="effect1_dropShadow_7558_49525"/>
<feBlend mode="normal" in="SourceGraphic" in2="effect1_dropShadow_7558_49525" result="shape"/>
</filter>
</defs>
</svg>
