<svg width="181" height="54" viewBox="0 0 181 54" fill="none" xmlns="http://www.w3.org/2000/svg">
<g clip-path="url(#clip0_7154_74671)">
<rect x="1.37422" y="0.675" width="178.65" height="52.65" fill="#1B1B1B" stroke="#1B1B1B" stroke-width="1.35"/>
<path d="M66.4271 12.9772C64.4966 12.9772 63.2798 14.4046 63.2798 16.5457C63.2798 18.7219 64.5668 20.044 66.4505 20.044C67.8545 20.044 69.2234 19.3654 69.2234 17.353V16.9201H66.1931V16.1713H70.019V20.7109H69.3521L69.2702 19.3771C68.8256 20.2078 67.7726 20.8396 66.4154 20.8396C64.0403 20.8396 62.4023 19.1314 62.4023 16.5457C62.4023 13.9834 64.0403 12.1816 66.4388 12.1816C68.2055 12.1816 69.5744 13.1878 69.902 14.7088H68.9894C68.6384 13.5622 67.6556 12.9772 66.4271 12.9772Z" fill="white" fill-opacity="0.6"/>
<path d="M73.8917 20.8396C72.2303 20.8396 71.1188 19.6462 71.1188 17.8678C71.1188 16.1011 72.2186 14.8843 73.8332 14.8843C75.3659 14.8843 76.4072 15.9724 76.4072 17.5753V17.9731H71.9027C71.9612 19.3537 72.6866 20.1493 73.9034 20.1493C74.8277 20.1493 75.4244 19.7515 75.635 19.0027H76.4072C76.103 20.1961 75.2255 20.8396 73.8917 20.8396ZM73.8332 15.5746C72.7685 15.5746 72.0665 16.2766 71.9261 17.3881H75.5999C75.5999 16.3 74.8979 15.5746 73.8332 15.5746Z" fill="white" fill-opacity="0.6"/>
<path d="M78.9396 20.6992H78.144V15.715H77.0091V15.0364H78.144V13.2463H78.9396V15.0364H80.0745V15.715H78.9396V20.6992Z" fill="white" fill-opacity="0.6"/>
<path d="M84.7684 13.4803C84.4408 13.4803 84.1717 13.2112 84.1717 12.8836C84.1717 12.556 84.4408 12.2752 84.7684 12.2752C85.096 12.2752 85.3769 12.556 85.3769 12.8836C85.3769 13.2112 85.096 13.4803 84.7684 13.4803ZM84.3706 20.6992V15.0364H85.1779V20.6992H84.3706Z" fill="white" fill-opacity="0.6"/>
<path d="M88.1602 20.6992H87.3646V15.715H86.2297V15.0364H87.3646V13.2463H88.1602V15.0364H89.2951V15.715H88.1602V20.6992Z" fill="white" fill-opacity="0.6"/>
<path d="M93.1935 17.8678C93.1935 16.1362 94.4103 14.8843 96.0717 14.8843C97.7331 14.8843 98.9499 16.1362 98.9499 17.8678C98.9499 19.5877 97.7331 20.8396 96.0717 20.8396C94.4103 20.8396 93.1935 19.5877 93.1935 17.8678ZM94.0125 17.8561C94.0125 19.1899 94.8549 20.1142 96.0717 20.1142C97.2768 20.1142 98.1309 19.1899 98.1309 17.8561C98.1309 16.5457 97.2768 15.6097 96.0717 15.6097C94.8549 15.6097 94.0125 16.5457 94.0125 17.8561Z" fill="white" fill-opacity="0.6"/>
<path d="M101.048 20.6992H100.241V15.0364H100.943L101.06 16.0192C101.434 15.2938 102.183 14.8843 103.002 14.8843C104.558 14.8843 105.202 15.8086 105.202 17.236V20.6992H104.395V17.4115C104.395 16.0894 103.798 15.6214 102.862 15.6214C101.704 15.6214 101.048 16.4638 101.048 17.7391V20.6992Z" fill="white" fill-opacity="0.6"/>
<path d="M66.5295 28.1252C63.7215 28.1252 62.0295 30.1952 62.0295 33.2732C62.0295 36.4232 63.8655 38.2412 66.5475 38.2412C68.7615 38.2412 70.5435 37.1072 70.5435 34.4792V34.1012H66.1875V32.5352H72.1995V39.7172H70.7235L70.5975 37.9532C69.8955 39.0872 68.3115 39.9152 66.4035 39.9152C62.7135 39.9152 60.1755 37.2512 60.1755 33.2372C60.1755 29.2772 62.7315 26.4692 66.5655 26.4692C69.4095 26.4692 71.6235 28.1072 72.0555 30.6092H70.1835C69.6975 28.9532 68.2575 28.1252 66.5295 28.1252ZM73.8492 35.2892C73.8492 32.5712 75.7932 30.6632 78.4392 30.6632C81.0672 30.6632 83.0112 32.5712 83.0112 35.2892C83.0112 38.0072 81.0672 39.9152 78.4392 39.9152C75.7932 39.9152 73.8492 38.0072 73.8492 35.2892ZM75.5592 35.2892C75.5592 37.1252 76.7292 38.4032 78.4392 38.4032C80.1312 38.4032 81.3192 37.1252 81.3192 35.2892C81.3192 33.4532 80.1312 32.1752 78.4392 32.1752C76.7292 32.1752 75.5592 33.4532 75.5592 35.2892ZM84.3082 35.2892C84.3082 32.5712 86.2522 30.6632 88.8982 30.6632C91.5262 30.6632 93.4702 32.5712 93.4702 35.2892C93.4702 38.0072 91.5262 39.9152 88.8982 39.9152C86.2522 39.9152 84.3082 38.0072 84.3082 35.2892ZM86.0182 35.2892C86.0182 37.1252 87.1882 38.4032 88.8982 38.4032C90.5902 38.4032 91.7782 37.1252 91.7782 35.2892C91.7782 33.4532 90.5902 32.1752 88.8982 32.1752C87.1882 32.1752 86.0182 33.4532 86.0182 35.2892ZM94.7851 35.0732C94.7851 32.5892 96.3871 30.6452 98.9431 30.6452C100.365 30.6452 101.463 31.2932 102.021 32.3912L102.147 30.8972H103.659V39.3392C103.659 42.1112 101.949 43.8752 99.2491 43.8752C96.8551 43.8752 95.2171 42.5252 94.8931 40.2932H96.5851C96.8011 41.5892 97.7731 42.3452 99.2491 42.3452C100.905 42.3452 101.985 41.2652 101.985 39.5912V37.8272C101.409 38.8532 100.257 39.4652 98.8711 39.4652C96.3691 39.4652 94.7851 37.5392 94.7851 35.0732ZM96.4771 35.0372C96.4771 36.6932 97.5031 37.9892 99.1591 37.9892C100.869 37.9892 101.913 36.7652 101.913 35.0372C101.913 33.3452 100.905 32.1212 99.1771 32.1212C97.4851 32.1212 96.4771 33.4172 96.4771 35.0372ZM107.829 39.6992H106.137V26.4512H107.829V39.6992ZM114.118 39.9152C111.526 39.9152 109.744 38.0432 109.744 35.3072C109.744 32.5532 111.49 30.6452 114.046 30.6452C116.548 30.6452 118.186 32.3732 118.186 34.9832V35.6132L111.382 35.6312C111.508 37.4852 112.48 38.5112 114.154 38.5112C115.468 38.5112 116.332 37.9712 116.62 36.9632H118.204C117.772 38.8532 116.296 39.9152 114.118 39.9152ZM114.046 32.0672C112.57 32.0672 111.634 32.9492 111.418 34.4972H116.494C116.494 33.0392 115.54 32.0672 114.046 32.0672ZM124.997 43.6412V30.8972H126.527L126.653 32.4812C127.247 31.2752 128.435 30.6452 129.839 30.6452C132.359 30.6452 133.925 32.5352 133.925 35.2352C133.925 37.9172 132.449 39.9332 129.839 39.9332C128.435 39.9332 127.265 39.3392 126.689 38.2592V43.6412H124.997ZM126.707 35.3072C126.707 37.1072 127.751 38.4032 129.479 38.4032C131.207 38.4032 132.233 37.1072 132.233 35.3072C132.233 33.4892 131.207 32.1932 129.479 32.1932C127.751 32.1932 126.707 33.4712 126.707 35.3072ZM137.518 39.6992H135.826V26.4512H137.518V39.6992ZM142.583 39.9152C140.693 39.9152 139.577 38.8532 139.577 37.2512C139.577 35.6312 140.783 34.6232 142.853 34.4612L145.625 34.2452V33.9932C145.625 32.5172 144.743 31.9952 143.555 31.9952C142.133 31.9952 141.323 32.6252 141.323 33.6872H139.847C139.847 31.8512 141.359 30.6452 143.627 30.6452C145.805 30.6452 147.281 31.7972 147.281 34.1732V39.6992H145.841L145.661 38.2772C145.211 39.2852 144.005 39.9152 142.583 39.9152ZM143.069 38.6012C144.671 38.6012 145.643 37.5572 145.643 35.9012V35.4332L143.393 35.6132C141.899 35.7572 141.287 36.3332 141.287 37.1972C141.287 38.1332 141.971 38.6012 143.069 38.6012ZM148.567 43.6412V42.2552H149.701C150.511 42.2552 151.159 42.1292 151.573 41.0132L151.879 40.1672L148.333 30.8972H150.115L152.671 37.9892L155.281 30.8972H157.027L152.869 41.6792C152.275 43.1912 151.393 43.8212 150.043 43.8212C149.485 43.8212 149.017 43.7492 148.567 43.6412Z" fill="white"/>
<path d="M39.051 22.6424C36.4664 20.9986 32.3181 18.359 25.8837 14.2621C25.4499 13.9363 24.9508 13.8936 24.5195 14.0596L35.5591 26.6132L39.051 22.6424Z" fill="#32BBFF"/>
<path d="M24.5179 14.0586C24.4371 14.0897 24.3584 14.1273 24.2832 14.1726C23.807 14.4656 23.457 15.0292 23.457 15.7421V37.4822C23.457 38.1951 23.8069 38.7588 24.2832 39.0516C24.3583 39.0969 24.4369 39.1346 24.5176 39.166L35.5575 26.6122L24.5179 14.0586Z" fill="#32BBFF"/>
<path d="M35.5594 26.6133L24.5195 39.1671C24.9509 39.3343 25.45 39.2949 25.884 38.9644C32.1239 34.991 36.2255 32.3826 38.8399 30.7248C38.9127 30.6783 38.984 30.6328 39.0545 30.5878L35.5594 26.6133Z" fill="#32BBFF"/>
<path d="M23.4336 27.1211V37.6362C23.4336 38.3258 23.7854 38.8711 24.2643 39.1544C24.3398 39.1982 24.4189 39.2347 24.5 39.265L35.6008 27.1211H23.4336Z" fill="#2C9FD9"/>
<path d="M25.9005 14.27C25.3851 13.8737 24.7773 13.885 24.3008 14.1795L35.4138 27.1208L39.0753 22.857C36.4893 21.1726 32.3386 18.4679 25.9005 14.27Z" fill="#29CC5E"/>
<path d="M35.4114 26.1094L24.3008 39.0487C24.7772 39.3431 25.3849 39.3601 25.9002 38.9582C32.1423 34.8874 36.2452 32.2152 38.8606 30.5167C38.9334 30.4691 39.0048 30.4225 39.0753 30.3764L35.4114 26.1094Z" fill="#D93F21"/>
<path d="M43.4213 27.1182C43.4213 26.5249 43.146 25.9261 42.6003 25.594C42.6003 25.594 41.5797 24.9749 38.4514 23.0723L34.7305 27.1182L38.455 31.1682C41.549 29.2793 42.6002 28.6424 42.6002 28.6424C43.146 28.3104 43.4213 27.7116 43.4213 27.1182Z" fill="#FFD500"/>
<path d="M42.6003 28.6445C43.146 28.3126 43.4213 27.7141 43.4213 27.1211H34.7305L38.455 31.1691C41.549 29.2811 42.6003 28.6445 42.6003 28.6445Z" fill="#FFAA00"/>
</g>
<defs>
<clipPath id="clip0_7154_74671">
<rect width="180" height="54" fill="white" transform="translate(0.699219)"/>
</clipPath>
</defs>
</svg>
